G04 Layer_Color=8388736*
%FSLAX25Y25*%
%MOIN*%
G70*
G01*
G75*
%ADD10O,0.16535X0.02362*%
%ADD11R,0.06299X0.06299*%
%ADD13C,0.06693*%
%ADD14C,0.23622*%
%ADD15R,0.06693X0.06693*%
%ADD16C,0.07874*%
%ADD17C,0.03347*%
D10*
X962614Y121500D02*
D03*
Y116500D02*
D03*
Y111500D02*
D03*
Y106500D02*
D03*
Y101500D02*
D03*
Y96500D02*
D03*
Y91500D02*
D03*
Y86500D02*
D03*
X989386Y121500D02*
D03*
Y116500D02*
D03*
Y111500D02*
D03*
Y106500D02*
D03*
Y101500D02*
D03*
Y96500D02*
D03*
Y91500D02*
D03*
Y86500D02*
D03*
X746614Y121500D02*
D03*
Y116500D02*
D03*
Y111500D02*
D03*
Y106500D02*
D03*
Y101500D02*
D03*
Y96500D02*
D03*
Y91500D02*
D03*
Y86500D02*
D03*
X773386Y121500D02*
D03*
Y116500D02*
D03*
Y111500D02*
D03*
Y106500D02*
D03*
Y101500D02*
D03*
Y96500D02*
D03*
Y91500D02*
D03*
Y86500D02*
D03*
X530614Y121500D02*
D03*
Y116500D02*
D03*
Y111500D02*
D03*
Y106500D02*
D03*
Y101500D02*
D03*
Y96500D02*
D03*
Y91500D02*
D03*
Y86500D02*
D03*
X557386Y121500D02*
D03*
Y116500D02*
D03*
Y111500D02*
D03*
Y106500D02*
D03*
Y101500D02*
D03*
Y96500D02*
D03*
Y91500D02*
D03*
Y86500D02*
D03*
X314614Y121500D02*
D03*
Y116500D02*
D03*
Y111500D02*
D03*
Y106500D02*
D03*
Y101500D02*
D03*
Y96500D02*
D03*
Y91500D02*
D03*
Y86500D02*
D03*
X341386Y121500D02*
D03*
Y116500D02*
D03*
Y111500D02*
D03*
Y106500D02*
D03*
Y101500D02*
D03*
Y96500D02*
D03*
Y91500D02*
D03*
Y86500D02*
D03*
X98614Y121500D02*
D03*
Y116500D02*
D03*
Y111500D02*
D03*
Y106500D02*
D03*
Y101500D02*
D03*
Y96500D02*
D03*
Y91500D02*
D03*
Y86500D02*
D03*
X125386Y121500D02*
D03*
Y116500D02*
D03*
Y111500D02*
D03*
Y106500D02*
D03*
Y101500D02*
D03*
Y96500D02*
D03*
Y91500D02*
D03*
Y86500D02*
D03*
D11*
X706614Y81000D02*
D03*
X720000D02*
D03*
X706614Y100000D02*
D03*
X720000D02*
D03*
X65307Y81000D02*
D03*
X78693D02*
D03*
X65307Y96000D02*
D03*
X78693D02*
D03*
X274614Y81000D02*
D03*
X288000D02*
D03*
X274614Y100000D02*
D03*
X288000D02*
D03*
X490614Y81000D02*
D03*
X504000D02*
D03*
X490614Y100000D02*
D03*
X504000D02*
D03*
X11307Y65000D02*
D03*
X24693D02*
D03*
X38307D02*
D03*
X51693D02*
D03*
X65307D02*
D03*
X78693D02*
D03*
X92307D02*
D03*
X105693D02*
D03*
X119307D02*
D03*
X132693D02*
D03*
X146307D02*
D03*
X159693D02*
D03*
X173307D02*
D03*
X186693D02*
D03*
X200307D02*
D03*
X213693D02*
D03*
X227307D02*
D03*
X240693D02*
D03*
X254307D02*
D03*
X267693D02*
D03*
X281307D02*
D03*
X294693D02*
D03*
X308307D02*
D03*
X321693D02*
D03*
X335307D02*
D03*
X348693D02*
D03*
X362307D02*
D03*
X375693D02*
D03*
X389307D02*
D03*
X402693D02*
D03*
X416307D02*
D03*
X429693D02*
D03*
X443307D02*
D03*
X456693D02*
D03*
X470307D02*
D03*
X483693D02*
D03*
X497307D02*
D03*
X510693D02*
D03*
X524307D02*
D03*
X537693D02*
D03*
X551307D02*
D03*
X564693D02*
D03*
X578307D02*
D03*
X591693D02*
D03*
X605307D02*
D03*
X618693D02*
D03*
X632307D02*
D03*
X645693D02*
D03*
X659307D02*
D03*
X672693D02*
D03*
X686307D02*
D03*
X699693D02*
D03*
X713307D02*
D03*
X726693D02*
D03*
X740307D02*
D03*
X753693D02*
D03*
X767307D02*
D03*
X780693D02*
D03*
X794307D02*
D03*
X807693D02*
D03*
X821307D02*
D03*
X834693D02*
D03*
X848307D02*
D03*
X861693D02*
D03*
X875307D02*
D03*
X888693D02*
D03*
X902307D02*
D03*
X915693D02*
D03*
X929307D02*
D03*
X942693D02*
D03*
X956307D02*
D03*
X969693D02*
D03*
X983307D02*
D03*
X996693D02*
D03*
X1010307D02*
D03*
X1023693D02*
D03*
X1037307D02*
D03*
X1050693D02*
D03*
X1064307D02*
D03*
X1077693D02*
D03*
X922614Y100000D02*
D03*
X936000D02*
D03*
X922614Y81000D02*
D03*
X936000D02*
D03*
D13*
X890000Y112000D02*
D03*
X900000D02*
D03*
X681000Y102000D02*
D03*
X691000D02*
D03*
X457000D02*
D03*
X467000D02*
D03*
X163000Y117000D02*
D03*
X283000D02*
D03*
X273000D02*
D03*
X263000D02*
D03*
X253000D02*
D03*
X243000D02*
D03*
X233000D02*
D03*
X223000D02*
D03*
X213000D02*
D03*
X203000D02*
D03*
X193000D02*
D03*
X183000D02*
D03*
X173000D02*
D03*
X681000Y122000D02*
D03*
X671000Y132000D02*
D03*
Y122000D02*
D03*
X651000D02*
D03*
Y132000D02*
D03*
X661000D02*
D03*
Y122000D02*
D03*
X641000Y132000D02*
D03*
Y122000D02*
D03*
X631000D02*
D03*
Y132000D02*
D03*
X621000Y122000D02*
D03*
Y132000D02*
D03*
X416000Y122000D02*
D03*
Y132000D02*
D03*
X436000Y122000D02*
D03*
Y132000D02*
D03*
X426000D02*
D03*
Y122000D02*
D03*
X446000D02*
D03*
Y132000D02*
D03*
X456000Y122000D02*
D03*
D14*
X1044000Y120000D02*
D03*
X45000D02*
D03*
X868000Y92000D02*
D03*
X652000D02*
D03*
X436000D02*
D03*
X220000D02*
D03*
D15*
X681000Y132000D02*
D03*
X456000D02*
D03*
D16*
X23000Y48654D02*
D03*
X13000D02*
D03*
X23000Y27000D02*
D03*
X13000D02*
D03*
X50000Y48654D02*
D03*
X40000D02*
D03*
X50000Y27000D02*
D03*
X40000D02*
D03*
X77000Y48654D02*
D03*
X67000D02*
D03*
X77000Y27000D02*
D03*
X67000D02*
D03*
X104000Y48654D02*
D03*
X94000D02*
D03*
X104000Y27000D02*
D03*
X94000D02*
D03*
X131000Y48654D02*
D03*
X121000D02*
D03*
X131000Y27000D02*
D03*
X121000D02*
D03*
X158000Y48654D02*
D03*
X148000D02*
D03*
X158000Y27000D02*
D03*
X148000D02*
D03*
X185000Y48654D02*
D03*
X175000D02*
D03*
X185000Y27000D02*
D03*
X175000D02*
D03*
X212000Y48654D02*
D03*
X202000D02*
D03*
X212000Y27000D02*
D03*
X202000D02*
D03*
X239000Y48654D02*
D03*
X229000D02*
D03*
X239000Y27000D02*
D03*
X229000D02*
D03*
X266000Y48654D02*
D03*
X256000D02*
D03*
X266000Y27000D02*
D03*
X256000D02*
D03*
X293000Y48654D02*
D03*
X283000D02*
D03*
X293000Y27000D02*
D03*
X283000D02*
D03*
X320000Y48654D02*
D03*
X310000D02*
D03*
X320000Y27000D02*
D03*
X310000D02*
D03*
X347000Y48654D02*
D03*
X337000D02*
D03*
X347000Y27000D02*
D03*
X337000D02*
D03*
X374000Y48654D02*
D03*
X364000D02*
D03*
X374000Y27000D02*
D03*
X364000D02*
D03*
X401000Y48654D02*
D03*
X391000D02*
D03*
X401000Y27000D02*
D03*
X391000D02*
D03*
X428000Y48654D02*
D03*
X418000D02*
D03*
X428000Y27000D02*
D03*
X418000D02*
D03*
X455000Y48654D02*
D03*
X445000D02*
D03*
X455000Y27000D02*
D03*
X445000D02*
D03*
X482000Y48654D02*
D03*
X472000D02*
D03*
X482000Y27000D02*
D03*
X472000D02*
D03*
X509000Y48654D02*
D03*
X499000D02*
D03*
X509000Y27000D02*
D03*
X499000D02*
D03*
X536000Y48654D02*
D03*
X526000D02*
D03*
X536000Y27000D02*
D03*
X526000D02*
D03*
X563000Y48654D02*
D03*
X553000D02*
D03*
X563000Y27000D02*
D03*
X553000D02*
D03*
X590000Y48654D02*
D03*
X580000D02*
D03*
X590000Y27000D02*
D03*
X580000D02*
D03*
X617000Y48654D02*
D03*
X607000D02*
D03*
X617000Y27000D02*
D03*
X607000D02*
D03*
X644000Y48654D02*
D03*
X634000D02*
D03*
X644000Y27000D02*
D03*
X634000D02*
D03*
X671000Y48654D02*
D03*
X661000D02*
D03*
X671000Y27000D02*
D03*
X661000D02*
D03*
X698000Y48654D02*
D03*
X688000D02*
D03*
X698000Y27000D02*
D03*
X688000D02*
D03*
X725000Y48654D02*
D03*
X715000D02*
D03*
X725000Y27000D02*
D03*
X715000D02*
D03*
X752000Y48654D02*
D03*
X742000D02*
D03*
X752000Y27000D02*
D03*
X742000D02*
D03*
X779000Y48654D02*
D03*
X769000D02*
D03*
X779000Y27000D02*
D03*
X769000D02*
D03*
X806000Y48654D02*
D03*
X796000D02*
D03*
X806000Y27000D02*
D03*
X796000D02*
D03*
X833000Y48654D02*
D03*
X823000D02*
D03*
X833000Y27000D02*
D03*
X823000D02*
D03*
X860000Y48654D02*
D03*
X850000D02*
D03*
X860000Y27000D02*
D03*
X850000D02*
D03*
X887000Y48654D02*
D03*
X877000D02*
D03*
X887000Y27000D02*
D03*
X877000D02*
D03*
X914000Y48654D02*
D03*
X904000D02*
D03*
X914000Y27000D02*
D03*
X904000D02*
D03*
X941000Y48654D02*
D03*
X931000D02*
D03*
X941000Y27000D02*
D03*
X931000D02*
D03*
X968000Y48654D02*
D03*
X958000D02*
D03*
X968000Y27000D02*
D03*
X958000D02*
D03*
X995000Y48654D02*
D03*
X985000D02*
D03*
X995000Y27000D02*
D03*
X985000D02*
D03*
X1022000Y48654D02*
D03*
X1012000D02*
D03*
X1022000Y27000D02*
D03*
X1012000D02*
D03*
X1049000Y48654D02*
D03*
X1039000D02*
D03*
X1049000Y27000D02*
D03*
X1039000D02*
D03*
X1076000Y48654D02*
D03*
X1066000D02*
D03*
X1076000Y27000D02*
D03*
X1066000D02*
D03*
D17*
X700000Y99000D02*
D03*
X721000Y108000D02*
D03*
X50000Y96000D02*
D03*
X18000Y74000D02*
D03*
X71000Y108000D02*
D03*
X263000Y146000D02*
D03*
X253000Y142000D02*
D03*
X243000Y140000D02*
D03*
X233000Y137965D02*
D03*
X223000Y135965D02*
D03*
X213000Y133965D02*
D03*
X203000Y131965D02*
D03*
X193000Y129965D02*
D03*
X183000Y128000D02*
D03*
X173000Y126000D02*
D03*
X76000Y103000D02*
D03*
X73000Y71000D02*
D03*
X85000Y95000D02*
D03*
X86000Y81000D02*
D03*
X591606Y146394D02*
D03*
X590000Y126000D02*
D03*
X585000Y121000D02*
D03*
X105693Y75693D02*
D03*
X321779Y76000D02*
D03*
X537823Y75957D02*
D03*
X969823D02*
D03*
X753823D02*
D03*
X786000Y102000D02*
D03*
X138000Y103000D02*
D03*
X570000Y102000D02*
D03*
X177000Y107000D02*
D03*
X162000Y110000D02*
D03*
X157000Y113000D02*
D03*
X468000Y122000D02*
D03*
X484000Y113000D02*
D03*
X477000Y99000D02*
D03*
X494000Y108000D02*
D03*
X515500Y111500D02*
D03*
X498500D02*
D03*
X947000Y112000D02*
D03*
X909000Y108000D02*
D03*
X925500Y116500D02*
D03*
X730000Y120000D02*
D03*
X298000D02*
D03*
X338000Y134000D02*
D03*
X343000Y132000D02*
D03*
X508000Y142000D02*
D03*
X1044000Y102000D02*
D03*
X708000Y134000D02*
D03*
X676000Y141000D02*
D03*
X671000Y143000D02*
D03*
X651000Y145000D02*
D03*
X646000Y137000D02*
D03*
X636000Y147000D02*
D03*
X710000Y146000D02*
D03*
X703000Y144000D02*
D03*
X723000Y142000D02*
D03*
X641000Y110000D02*
D03*
X626000Y112000D02*
D03*
X636000Y114000D02*
D03*
X82000Y120000D02*
D03*
X1025000Y85000D02*
D03*
X1011000Y127000D02*
D03*
X1004000Y128000D02*
D03*
X1018000Y99000D02*
D03*
X981000Y130000D02*
D03*
X946000Y140000D02*
D03*
X974000Y132000D02*
D03*
X967000Y134000D02*
D03*
X960000Y136000D02*
D03*
X953000Y138000D02*
D03*
X723000Y120000D02*
D03*
X940000Y142000D02*
D03*
Y120000D02*
D03*
X579000Y128000D02*
D03*
Y121000D02*
D03*
X806000Y126000D02*
D03*
X1017000Y121000D02*
D03*
X1011000D02*
D03*
X801000D02*
D03*
X795000D02*
D03*
Y128000D02*
D03*
X363000D02*
D03*
Y121000D02*
D03*
X374000Y126000D02*
D03*
X369000Y121000D02*
D03*
X292000Y142000D02*
D03*
Y120000D02*
D03*
X508000D02*
D03*
X736000Y108000D02*
D03*
X713000Y103000D02*
D03*
X734000D02*
D03*
X747000Y43000D02*
D03*
X855000D02*
D03*
X828000D02*
D03*
X801000D02*
D03*
X774000D02*
D03*
X720000D02*
D03*
X666000D02*
D03*
X774000Y80000D02*
D03*
X693000Y74000D02*
D03*
X720000D02*
D03*
X747000Y80000D02*
D03*
X735500Y116500D02*
D03*
X693000Y43000D02*
D03*
X828000Y83000D02*
D03*
X801000D02*
D03*
X784000Y107000D02*
D03*
X726000Y100000D02*
D03*
Y81000D02*
D03*
X666000Y74000D02*
D03*
X848000Y102000D02*
D03*
X815000Y105000D02*
D03*
X798000Y108000D02*
D03*
X855000Y76000D02*
D03*
X1071000D02*
D03*
X1014000Y108000D02*
D03*
X1031000Y105000D02*
D03*
X882000Y74000D02*
D03*
X942000Y81000D02*
D03*
Y100000D02*
D03*
X1000000Y107000D02*
D03*
X1017000Y83000D02*
D03*
X1044000D02*
D03*
X909000Y43000D02*
D03*
X1000500Y116500D02*
D03*
X951500D02*
D03*
X1000500Y111500D02*
D03*
X963000Y80000D02*
D03*
X936000Y74000D02*
D03*
X909000D02*
D03*
X990000Y80000D02*
D03*
X882000Y43000D02*
D03*
X936000D02*
D03*
X990000D02*
D03*
X1017000D02*
D03*
X1044000D02*
D03*
X1071000D02*
D03*
X963000D02*
D03*
X950000Y103000D02*
D03*
X929000D02*
D03*
X952000Y108000D02*
D03*
X639000Y76000D02*
D03*
X582000Y108000D02*
D03*
X599000Y105000D02*
D03*
X632000Y102000D02*
D03*
X510000Y81000D02*
D03*
Y100000D02*
D03*
X568000Y107000D02*
D03*
X585000Y83000D02*
D03*
X612000D02*
D03*
X477000Y43000D02*
D03*
X568500Y116500D02*
D03*
X519500D02*
D03*
X568500Y111500D02*
D03*
X531000Y80000D02*
D03*
X504000Y74000D02*
D03*
X477000D02*
D03*
X558000Y80000D02*
D03*
X450000Y43000D02*
D03*
X504000D02*
D03*
X558000D02*
D03*
X585000D02*
D03*
X612000D02*
D03*
X639000D02*
D03*
X531000D02*
D03*
X518000Y103000D02*
D03*
X497000D02*
D03*
X520000Y108000D02*
D03*
X366000D02*
D03*
X383000Y105000D02*
D03*
X416000Y102000D02*
D03*
X234000Y74000D02*
D03*
X294000Y81000D02*
D03*
Y100000D02*
D03*
X354000Y103000D02*
D03*
X352000Y107000D02*
D03*
X369000Y83000D02*
D03*
X396000D02*
D03*
X278000Y108000D02*
D03*
X261000Y99000D02*
D03*
Y43000D02*
D03*
X352500Y116500D02*
D03*
X303500D02*
D03*
X352500Y111500D02*
D03*
X315000Y80000D02*
D03*
X288000Y74000D02*
D03*
X261000D02*
D03*
X342000Y80000D02*
D03*
X234000Y43000D02*
D03*
X288000D02*
D03*
X342000D02*
D03*
X369000D02*
D03*
X396000D02*
D03*
X423000D02*
D03*
X315000D02*
D03*
X302000Y103000D02*
D03*
X281000D02*
D03*
X304000Y108000D02*
D03*
X207000Y76000D02*
D03*
X136000Y107000D02*
D03*
X153000Y83000D02*
D03*
X180000D02*
D03*
X45000Y43000D02*
D03*
X136500Y116500D02*
D03*
X87500D02*
D03*
X136500Y111500D02*
D03*
X99000Y80000D02*
D03*
X45000Y74000D02*
D03*
X126000Y80000D02*
D03*
X18000Y43000D02*
D03*
X72000D02*
D03*
X126000D02*
D03*
X153000D02*
D03*
X180000D02*
D03*
X207000D02*
D03*
X99000D02*
D03*
X86000Y103000D02*
D03*
X88000Y108000D02*
D03*
X784500Y116500D02*
D03*
Y111500D02*
D03*
X107000Y140000D02*
D03*
X112000Y138000D02*
D03*
X117000Y136000D02*
D03*
X122000Y134000D02*
D03*
X127000Y132000D02*
D03*
X132000Y130000D02*
D03*
X348000D02*
D03*
X333000Y136000D02*
D03*
X328000Y138000D02*
D03*
X323000Y140000D02*
D03*
X564000Y130000D02*
D03*
X780000D02*
D03*
X775000Y132000D02*
D03*
X770000Y134000D02*
D03*
X765000Y136000D02*
D03*
X760000Y138000D02*
D03*
X755000Y140000D02*
D03*
X107000Y146000D02*
D03*
X404000D02*
D03*
X456693Y58307D02*
D03*
X429693D02*
D03*
X402693D02*
D03*
X375693D02*
D03*
X294693D02*
D03*
X267693D02*
D03*
X240693D02*
D03*
X213693D02*
D03*
X186693D02*
D03*
X159693D02*
D03*
X78693D02*
D03*
X51693D02*
D03*
X24693D02*
D03*
X483693D02*
D03*
X510693D02*
D03*
X591693D02*
D03*
X618693D02*
D03*
X645693D02*
D03*
X672693D02*
D03*
X699693D02*
D03*
X726693D02*
D03*
X807693D02*
D03*
X834693D02*
D03*
X861693D02*
D03*
X888693D02*
D03*
X915693D02*
D03*
X942693D02*
D03*
X1023693D02*
D03*
X1050693D02*
D03*
X1077693D02*
D03*
X480000Y133000D02*
D03*
X1004000Y120000D02*
D03*
X788000D02*
D03*
X356000D02*
D03*
X456250Y75000D02*
D03*
X423000D02*
D03*
X323000Y55000D02*
D03*
X107000D02*
D03*
X539000D02*
D03*
X755000D02*
D03*
X971000D02*
D03*
X564693Y79693D02*
D03*
X780693D02*
D03*
X996693D02*
D03*
X348693D02*
D03*
X792000Y148000D02*
D03*
X717000D02*
D03*
X554000Y134000D02*
D03*
X539000Y140000D02*
D03*
X559000Y132000D02*
D03*
X572000Y120000D02*
D03*
X549000Y136000D02*
D03*
X544000Y138000D02*
D03*
X784000Y54000D02*
D03*
X1000000D02*
D03*
X568000D02*
D03*
X352000D02*
D03*
X136000D02*
D03*
X1002051Y103000D02*
D03*
X789000Y80000D02*
D03*
X1005000D02*
D03*
X573000D02*
D03*
X357000D02*
D03*
X139000D02*
D03*
X436000Y150000D02*
D03*
X446000D02*
D03*
X456000D02*
D03*
M02*
