M48
;Layer_Color=9474304
;FILE_FORMAT=2:5
INCH,LZ
;TYPE=PLATED
T1F00S00C0.01968
T2F00S00C0.03937
T3F00S00C0.04331
T4F00S00C0.09843
T5F00S00C0.12992
%
T01
X0018Y0043
X0024693Y0058307
X0018Y0074
X0045
X0051693Y0058307
X0045Y0043
X0072
X0078693Y0058307
X0073Y0071
X0086Y0081
X0099Y008
X0105693Y0075693
X0107Y0055
X0099Y0043
X0085Y0095
X0086Y0103
X0088Y0108
X0071
X0076Y0103
X005Y0096
X0126Y008
X0139
X0153Y0083
X018
X0177Y0107
X0136
X0138Y0103
X0136Y0054
X0126Y0043
X0153
X0159693Y0058307
X0186693
X018Y0043
X0207
X0213693Y0058307
X0207Y0076
X0234Y0074
X0240693Y0058307
X0234Y0043
X0261
Y0074
Y0099
X0281Y0103
X0278Y0108
X0294Y01
X0302Y0103
X0304Y0108
X0294Y0081
X0288Y0074
X0294693Y0058307
X0288Y0043
X0315
X0323Y0055
X0321779Y0076
X0315Y008
X0342
X0348693Y0079693
X0357Y008
X0369Y0083
X0396
X0402693Y0058307
X0396Y0043
X0369
X0375693Y0058307
X0352Y0054
X0342Y0043
X0354Y0103
X0352Y0107
X0366Y0108
X0383Y0105
X0416Y0102
X0267693Y0058307
X0429693
X0423Y0043
X045
X0456693Y0058307
X045625Y0075
X0477Y0074
X0483693Y0058307
X0477Y0043
X0504
X0510693Y0058307
X0504Y0074
X051Y0081
Y01
X0518Y0103
X052Y0108
X0494
X0497Y0103
X0477Y0099
X0531Y008
X0537823Y0075957
X0539Y0055
X0531Y0043
X0558
X0568Y0054
X0564693Y0079693
X0558Y008
X0573
X057Y0102
X0568Y0107
X0423Y0075
X0585Y0083
X0612
X0618693Y0058307
X0612Y0043
X0585
X0591693Y0058307
X0599Y0105
X0582Y0108
X0632Y0102
X0639Y0076
X0645693Y0058307
X0639Y0043
X0666
X0672693Y0058307
X0666Y0074
X0693
X0699693Y0058307
X0693Y0043
X072
X0726693Y0058307
X072Y0074
X0726Y0081
Y01
X0734Y0103
X0721Y0108
X0713Y0103
X07Y0099
X0736Y0108
X0747Y008
X0753823Y0075957
X0755Y0055
X0747Y0043
X0774
X0784Y0054
X0801Y0043
X0807693Y0058307
X0834693
X0828Y0043
X0855
X0861693Y0058307
X0855Y0076
X0882Y0074
X0888693Y0058307
X0882Y0043
X0848Y0102
X0815Y0105
X0798Y0108
X0784Y0107
X0786Y0102
X0789Y008
X0780693Y0079693
X0774Y008
X0801Y0083
X0828
X0909Y0074
X0915693Y0058307
X0909Y0043
X0936
X0942693Y0058307
X0936Y0074
X0942Y0081
Y01
X095Y0103
X0952Y0108
X0929Y0103
X0909Y0108
X0963Y008
X0969823Y0075957
X0971Y0055
X0963Y0043
X099
X1Y0054
X1017Y0043
X1023693Y0058307
X1025Y0085
X1017Y0083
X1005Y008
X0996693Y0079693
X099Y008
X1002051Y0103
X1Y0107
X1014Y0108
X1018Y0099
X1031Y0105
X1044Y0102
Y0083
Y0043
X1050693Y0058307
X1077693
X1071Y0043
Y0076
X1017Y0121
X1011
Y0127
X1004Y0128
Y012
X10005Y01165
Y01115
X0981Y013
X0974Y0132
X0967Y0134
X096Y0136
X0953Y0138
X0946Y014
X094Y0142
Y012
X0947Y0112
X09515Y01165
X09255
X0806Y0126
X0801Y0121
X0795
Y0128
X0788Y012
X07845Y01165
Y01115
X078Y013
X0775Y0132
X077Y0134
X0765Y0136
X076Y0138
X0755Y014
X07355Y01165
X0792Y0148
X0723Y0142
X0717Y0148
X071Y0146
X0703Y0144
X0708Y0134
X0723Y012
X073
X0676Y0141
X0671Y0143
X0651Y0145
X0646Y0137
X0636Y0147
Y0114
X0641Y011
X0626Y0112
X059Y0126
X0585Y0121
X0579
Y0128
X0591606Y0146394
X0564Y013
X0559Y0132
X0554Y0134
X0549Y0136
X0544Y0138
X0539Y014
X0508Y0142
Y012
X05195Y01165
X05155Y01115
X04985
X0484Y0113
X048Y0133
X0468Y0122
X0456Y015
X0446
X0436
X05685Y01165
Y01115
X0572Y012
X0404Y0146
X0374Y0126
X0369Y0121
X0363
Y0128
X0356Y012
X03525Y01165
Y01115
X0348Y013
X0343Y0132
X0338Y0134
X0333Y0136
X0328Y0138
X0323Y014
X0292Y0142
Y012
X0298
X03035Y01165
X0263Y0146
X0253Y0142
X0243Y014
X0233Y0137965
X0223Y0135965
X0213Y0133965
X0203Y0131965
X0193Y0129965
X0183Y0128
X0173Y0126
X0162Y011
X0157Y0113
X01365Y01115
Y01165
X0132Y013
X0127Y0132
X0122Y0134
X0117Y0136
X0112Y0138
X0107Y014
Y0146
X00875Y01165
X0082Y012
T02
X0013Y0027
X0023
X0027646Y001952
X004Y0027
X005
X0054646Y001952
X0067Y0027
X0077
X0081646Y001952
X0094Y0027
X0104
X0108646Y001952
X0104Y0048654
X0094
X0077
X0067
X005
X004
X0023
X0013
X0121
X0131
X0148
X0158
X0175
X0185
X0202
X0212
X0229
X0239
X0256
Y0027
X0239
X0229
X0212
X0202
X0185
X0175
X0158
X0148
X0131
X0121
X0135646Y001952
X0162646
X0189646
X0216646
X0243646
X0270646
X0266Y0027
X0283
X0293
X0297646Y001952
X031Y0027
X032
X0324646Y001952
X0337Y0027
X0347
X0351646Y001952
X0364Y0027
X0374
X0378646Y001952
X0391Y0027
X0401
X0405646Y001952
X0418Y0027
Y0048654
X0401
X0391
X0374
X0364
X0347
X0337
X032
X031
X0293
X0283
X0266
X0428
X0445
X0455
X0472
X0482
X0499
X0509
X0526
X0536
X0553
X0563
Y0027
X0553
X0536
X0526
X0509
X0499
X0482
X0472
X0455
X0445
X0428
X0432646Y001952
X0459646
X0486646
X0513646
X0540646
X0567646
X058Y0027
X059
X0594646Y001952
X0607Y0027
X0617
X0621646Y001952
X0634Y0027
X0644
X0648646Y001952
X0661Y0027
X0671
X0675646Y001952
X0688Y0027
X0698
X0702646Y001952
X0715Y0027
X0725
X0729646Y001952
X0725Y0048654
X0715
X0698
X0688
X0671
X0661
X0644
X0634
X0617
X0607
X059
X058
X0742
X0752
X0769
X0779
X0796
X0806
X0823
X0833
X085
X086
X0877
X0887
Y0027
X0877
X086
X085
X0833
X0823
X0806
X0796
X0779
X0769
X0752
X0742
X0756646Y001952
X0783646
X0810646
X0837646
X0864646
X0891646
X0904Y0027
X0914
X0918646Y001952
X0931Y0027
X0941
X0945646Y001952
X0958Y0027
X0968
X0972646Y001952
X0985Y0027
X0995
X0999646Y001952
X1012Y0027
X1022
X1026646Y001952
X1039Y0027
Y0048654
X1022
X1012
X0995
X0985
X0968
X0958
X0941
X0931
X0914
X0904
X1049
X1066
X1076
Y0027
X1066
X1049
X1053646Y001952
X1080646
T03
X0457Y0102
X0467
X0681
X0691
X09Y0112
X089
X0681Y0122
Y0132
X0671
Y0122
X0661
X0651
Y0132
X0661
X0641
Y0122
X0631
Y0132
X0621
Y0122
X0456
X0446
X0436
Y0132
X0426
Y0122
X0446Y0132
X0456
X0416
Y0122
X0283Y0117
X0273
X0263
X0253
X0243
X0233
X0223
X0213
X0203
X0193
X0183
X0173
X0163
T04
X001052Y0037827
X002548
X003752
X005248
X006452
X007948
X009152
X010648
X011852
X013348
X014552
X016048
X017252
X018748
X019952
X021448
X022652
X024148
X025352
X026848
X028052
X029548
X030752
X032248
X033452
X034948
X036152
X037648
X038852
X040348
X041552
X043048
X044252
X045748
X046952
X048448
X049652
X051148
X052352
X053848
X055052
X056548
X057752
X059248
X060452
X061948
X063152
X064648
X065852
X067348
X068552
X070048
X071252
X072748
X073952
X075448
X076652
X078148
X079352
X080848
X082052
X083548
X084752
X086248
X087452
X088948
X090152
X091648
X092852
X094348
X095552
X097048
X098252
X099748
X100952
X102448
X103652
X105148
X106352
X107848
T05
X022Y0092
X0436
X0652
X0868
X1044Y012
X0045
M30
