M48
;Layer_Color=9474304
;FILE_FORMAT=2:5
INCH,LZ
;TYPE=PLATED
T1F00S00C0.01968
T2F00S00C0.03000
T3F00S00C0.03937
T4F00S00C0.04331
T5F00S00C0.09843
T6F00S00C0.12992
%
T01
X0026386Y0050693
X0053386
X0047Y0036
X0074
X0080386Y0050693
X0087Y0064
X0074Y0067
X0082Y0075
Y0091
X0088Y0096
X0087Y01
X0075Y0099
Y0109
X0066Y0105
X0047Y0067
X0101Y0073
X0108Y0069
X0101Y0036
X011Y0047
X0137
X0128Y0036
X0155
X0161386Y0050693
X0188385
X0182Y0036
X0209
X0215385Y0050693
X0242385
X0236Y0036
X0263
Y0067
Y0092
X0236Y0067
X0205658Y0076
X0182
X0155
X0141Y0071
X0128Y0073
X0139913Y0094913
X01385Y00995
Y01045
X0149Y0109
X0155Y0104
X0165Y00995
X028Y0101
X0283Y0096
X0296Y0093
X0304Y0096
X0306Y0101
X0296Y0074
X029Y0067
X0296385Y0050693
X029Y0036
X0317
X0326Y0047
X0324Y0069
X0317Y0073
X0344
X0357Y0071
X0371Y0076
X0398
X0404385Y0050693
X0398Y0036
X0371
X0377385Y0050693
X0353Y0047
X0344Y0036
X0356Y0096
X0354Y01
X03545Y01045
X0368Y0109
X0385Y0104
X0418Y0099
X0269385Y0050693
X0431385
X0425Y0036
X0452
X0458385Y0050693
X0452Y0067
X0479
X0485385Y0050693
X0479Y0036
X0506
X0512385Y0050693
X0506Y0067
X0512Y0074
Y0093
X0519Y0096
X0522Y0101
X0496
X0499Y0096
X0479Y0092
X0533Y0073
X054Y0069
X0542Y0047
X0533Y0036
X056
X0569Y0047
X0573Y0071
X056Y0073
X05705Y00995
Y01045
X0572Y0109
X0425Y0069
X0587Y0076
X0592Y0082
X0597Y0086
X0604Y0087
X0605896Y0091896
X0599Y0099
X0587Y0098
X0589Y0102
X0584
X0581Y0105
X0615Y0104
X062Y0106
X0625Y0108
X0620385Y0050693
X0614Y0036
X0587
X0593385Y0050693
X0647693
X0641Y0036
X0628Y0128
Y0133
Y0138
Y0143
X0627984Y0148016
X0628Y0153
X0625858Y017
X062Y0176
X060289Y016011
X0607Y0156
Y015
Y0145
X0605Y014
X06Y0139
X0610972Y0131972
X0611Y0117
X060289Y011711
X0597Y0117
X0594Y0113
X06
X058225Y011125
X058Y0126
X0585921Y0144079
X0587142Y0157142
X0591Y016
X0597Y0156
X065Y018
X056Y0165
X0557874Y0148126
X0555Y0136
X056Y0134
X0565Y0132
X057Y0130051
X0575Y0128
X0577949Y0122
X0578Y0116
X0573Y0115
X0569Y0112
X0568Y012
X0562Y0122
X0539Y0126
X0534Y0128
X0529Y013
X0524Y0132
X0519Y0134
X0512Y0143
X0507Y0124
Y0115
X0512
X05215Y01095
X0483Y011
X0475Y0138
X044Y0145
X043
X0425Y0176
X0435Y0178
X0405Y0176
X0395
X04Y015
X041
X042
X039Y0145
X038
X0362Y012
Y0113
X0357
X03545Y01095
X0355Y0122
X0366Y0115
X0335Y0136
X0323Y0126
X0318Y0128
X0313Y013
X0308Y0132
X0303Y0134
X03Y0142
X0295Y0124
Y0113
X03
X03055Y01095
X0255Y0136
X0245Y0134
X0235Y0131965
X0225Y0129965
X0215Y0128035
X0205Y0125965
X0195Y0124035
X0185Y0122
X0175Y012
X0155Y0124
X015Y012
X0149Y0114
X01385Y01145
Y01095
X0143Y0122
X0134Y0136
X0129Y0134
X0124Y0132
X0119Y013
X0114Y0128
X0124Y0141
X0129
X0109Y0145
Y0149
Y0126
X0089Y0115
X00895Y01095
X0089Y0138
T02
X0521787Y0152
X0541
T03
X0015Y002
X0025
X0029646Y001252
X0042Y002
X0052
X0056646Y001252
X0069Y002
X0079
X0083646Y001252
X0096Y002
X0106
Y0041653
X0096
X0079
X0069
X0052
X0042
X0025
X0015
X0123
X0133
X015
X016
X0177
X0187
X0204
X0214
X0231
X0241
X0258
Y002
X0241
X0231
X0214
X0204
X0187
X0177
X016
X015
X0133
X0123
X0110646Y001252
X0137646
X0164646
X0191646
X0218646
X0245646
X0272646
X0268Y002
X0285
X0295
X0299646Y001252
X0312Y002
X0322
X0326646Y001252
X0339Y002
X0349
X0353646Y001252
X0366Y002
X0376
X0380646Y001252
X0393Y002
X0403
X0407646Y001252
X042Y002
Y0041653
X0403
X0393
X0376
X0366
X0349
X0339
X0322
X0312
X0295
X0285
X0268
X043
X0447
X0457
X0474
X0484
X0501
X0511
X0528
X0538
X0555
X0565
Y002
X0555
X0538
X0528
X0511
X0501
X0484
X0474
X0457
X0447
X043
X0434646Y001252
X0461646
X0488646
X0515646
X0542646
X0569646
X0582Y002
X0592
X0596646Y001252
X0609Y002
X0619
X0623646Y001252
X0636Y002
X0646
X0650646Y001252
X0646Y0041653
X0636
X0619
X0609
X0592
X0582
T04
X0615Y0075
X061Y0085
X062
X0625Y0095
X0615
X062Y0115
X064
Y0125
Y0135
Y0145
Y0155
Y0165
X049
X048
X0475Y0148
X0485
X0495
X0465
X0435Y0155
X0425
Y0165
X0435
X043Y011
X042
X041
X04
X039
X038
X0375Y0155
Y0165
X0385
Y0155
X0395
X0405
Y0165
X0395
X0415
Y0155
X028
X027
Y0165
X028
X026
X025
X024
Y0155
X025
X026
X0255Y011
X0245
X0235
X0225
X0215
X0205
X0195
X0185
X0175
X0165
X016Y0155
Y0165
X015
Y0155
X014
Y0165
X013
X012
Y0155
X013
X011
Y0165
X0265Y011
X0079Y0125
X007
X006
X01Y0155
Y0165
T05
X001252Y0030827
X002748
X003952
X005448
X006652
X008148
X009352
X010848
X012052
X013548
X014752
X016248
X017452
X018948
X020152
X021648
X022852
X024348
X025552
X027048
X028252
X029748
X030952
X032448
X033652
X035148
X036352
X037848
X039052
X040548
X041752
X043248
X044452
X045948
X047152
X048648
X049852
X051348
X052552
X054048
X055252
X056748
X057952
X059448
X060652
X062148
X063352
X064848
T06
X002Y0085
X0223
X0439
X064
X033Y016
X002
M30
