G04 Layer_Color=8388736*
%FSLAX25Y25*%
%MOIN*%
G70*
G01*
G75*
%ADD10R,0.06299X0.06299*%
%ADD11R,0.03937X0.05118*%
%ADD12O,0.16535X0.02362*%
%ADD13O,0.14370X0.01181*%
%ADD14O,0.01181X0.14370*%
%ADD15R,0.04724X0.05118*%
%ADD17C,0.05905*%
%ADD18R,0.05905X0.05905*%
%ADD19C,0.06693*%
%ADD20R,0.06693X0.06693*%
%ADD21R,0.05905X0.05905*%
%ADD22C,0.04724*%
%ADD23C,0.07874*%
%ADD24C,0.23622*%
%ADD25C,0.03347*%
D10*
X94307Y58000D02*
D03*
X107693D02*
D03*
X67307D02*
D03*
X80693D02*
D03*
X40307D02*
D03*
X53693D02*
D03*
X13307D02*
D03*
X26693D02*
D03*
X607307D02*
D03*
X620693D02*
D03*
X121307D02*
D03*
X134693D02*
D03*
X148307D02*
D03*
X161693D02*
D03*
X175307D02*
D03*
X188693D02*
D03*
X202307D02*
D03*
X215693D02*
D03*
X229307D02*
D03*
X242693D02*
D03*
X256307D02*
D03*
X269693D02*
D03*
X283307D02*
D03*
X296693D02*
D03*
X310307D02*
D03*
X323693D02*
D03*
X337307D02*
D03*
X350693D02*
D03*
X364307D02*
D03*
X377693D02*
D03*
X391307D02*
D03*
X404693D02*
D03*
X418307D02*
D03*
X431693D02*
D03*
X499307D02*
D03*
X512693D02*
D03*
X526307D02*
D03*
X539693D02*
D03*
X553307D02*
D03*
X566693D02*
D03*
X580307D02*
D03*
X593693D02*
D03*
X634307D02*
D03*
X647693D02*
D03*
X290000Y74000D02*
D03*
X276614D02*
D03*
X74693Y75000D02*
D03*
X61307D02*
D03*
X505693Y93000D02*
D03*
X492307D02*
D03*
X290000D02*
D03*
X276614D02*
D03*
X74693Y91000D02*
D03*
X61307D02*
D03*
X472307Y58000D02*
D03*
X485693D02*
D03*
X445307D02*
D03*
X458693D02*
D03*
X505693Y74000D02*
D03*
X492307D02*
D03*
D11*
X569126Y170000D02*
D03*
X577000D02*
D03*
X620937D02*
D03*
X613063D02*
D03*
X477874Y110000D02*
D03*
X470000D02*
D03*
D12*
X100614Y114500D02*
D03*
Y109500D02*
D03*
Y104500D02*
D03*
Y99500D02*
D03*
Y94500D02*
D03*
Y89500D02*
D03*
Y84500D02*
D03*
Y79500D02*
D03*
X127386Y114500D02*
D03*
Y109500D02*
D03*
Y104500D02*
D03*
Y99500D02*
D03*
Y94500D02*
D03*
Y89500D02*
D03*
Y84500D02*
D03*
Y79500D02*
D03*
X316614Y114500D02*
D03*
Y109500D02*
D03*
Y104500D02*
D03*
Y99500D02*
D03*
Y94500D02*
D03*
Y89500D02*
D03*
Y84500D02*
D03*
Y79500D02*
D03*
X343386Y114500D02*
D03*
Y109500D02*
D03*
Y104500D02*
D03*
Y99500D02*
D03*
Y94500D02*
D03*
Y89500D02*
D03*
Y84500D02*
D03*
Y79500D02*
D03*
X532614Y114500D02*
D03*
Y109500D02*
D03*
Y104500D02*
D03*
Y99500D02*
D03*
Y94500D02*
D03*
Y89500D02*
D03*
Y84500D02*
D03*
Y79500D02*
D03*
X559386Y114500D02*
D03*
Y109500D02*
D03*
Y104500D02*
D03*
Y99500D02*
D03*
Y94500D02*
D03*
Y89500D02*
D03*
Y84500D02*
D03*
Y79500D02*
D03*
D13*
X575035Y159827D02*
D03*
Y157858D02*
D03*
Y155890D02*
D03*
Y153921D02*
D03*
Y151953D02*
D03*
Y149984D02*
D03*
Y148016D02*
D03*
Y146047D02*
D03*
Y144079D02*
D03*
Y142110D02*
D03*
Y140142D02*
D03*
Y138173D02*
D03*
X616965D02*
D03*
Y140142D02*
D03*
Y142110D02*
D03*
Y144079D02*
D03*
Y146047D02*
D03*
Y148016D02*
D03*
Y149984D02*
D03*
Y151953D02*
D03*
Y153921D02*
D03*
Y155890D02*
D03*
Y157858D02*
D03*
Y159827D02*
D03*
D14*
X585173Y128035D02*
D03*
X587142D02*
D03*
X589110D02*
D03*
X591079D02*
D03*
X593047D02*
D03*
X595016D02*
D03*
X596984D02*
D03*
X598953D02*
D03*
X600921D02*
D03*
X602890D02*
D03*
X604858D02*
D03*
X606827D02*
D03*
Y169965D02*
D03*
X604858D02*
D03*
X602890D02*
D03*
X600921D02*
D03*
X598953D02*
D03*
X596984D02*
D03*
X595016D02*
D03*
X593047D02*
D03*
X591079D02*
D03*
X589110D02*
D03*
X587142D02*
D03*
X585173D02*
D03*
D15*
X460000Y110000D02*
D03*
X451339D02*
D03*
D17*
X640000Y165000D02*
D03*
Y155000D02*
D03*
Y125000D02*
D03*
Y135000D02*
D03*
Y145000D02*
D03*
X480000Y165000D02*
D03*
D18*
X640000Y115000D02*
D03*
D19*
X375000Y165000D02*
D03*
X385000Y155000D02*
D03*
Y165000D02*
D03*
X405000D02*
D03*
Y155000D02*
D03*
X395000D02*
D03*
Y165000D02*
D03*
X415000Y155000D02*
D03*
Y165000D02*
D03*
X425000D02*
D03*
Y155000D02*
D03*
X435000Y165000D02*
D03*
Y155000D02*
D03*
X380000Y110000D02*
D03*
X390000D02*
D03*
X400000D02*
D03*
X410000D02*
D03*
X420000D02*
D03*
X430000D02*
D03*
X475000Y148000D02*
D03*
X485000D02*
D03*
X495000D02*
D03*
X465000D02*
D03*
X240000Y165000D02*
D03*
X250000Y155000D02*
D03*
Y165000D02*
D03*
X270000D02*
D03*
Y155000D02*
D03*
X260000D02*
D03*
Y165000D02*
D03*
X280000Y155000D02*
D03*
Y165000D02*
D03*
X160000Y155000D02*
D03*
Y165000D02*
D03*
X150000Y155000D02*
D03*
Y165000D02*
D03*
X140000D02*
D03*
Y155000D02*
D03*
X120000Y165000D02*
D03*
Y155000D02*
D03*
X130000D02*
D03*
Y165000D02*
D03*
X110000D02*
D03*
Y155000D02*
D03*
X100000Y165000D02*
D03*
X70000Y125000D02*
D03*
X79000D02*
D03*
X165000Y110000D02*
D03*
X175000D02*
D03*
X185000D02*
D03*
X195000D02*
D03*
X205000D02*
D03*
X215000D02*
D03*
X225000D02*
D03*
X235000D02*
D03*
X245000D02*
D03*
X255000D02*
D03*
X265000D02*
D03*
X60000Y125000D02*
D03*
X625000Y95000D02*
D03*
X615000D02*
D03*
X610000Y85000D02*
D03*
X620000D02*
D03*
Y115000D02*
D03*
X615000Y75000D02*
D03*
D20*
X375000Y155000D02*
D03*
X240000D02*
D03*
X100000D02*
D03*
D21*
X490000Y165000D02*
D03*
D22*
X521787Y152000D02*
D03*
X541000D02*
D03*
D23*
X25000Y41653D02*
D03*
X15000D02*
D03*
X25000Y20000D02*
D03*
X15000D02*
D03*
X52000Y41653D02*
D03*
X42000D02*
D03*
X52000Y20000D02*
D03*
X42000D02*
D03*
X79000Y41653D02*
D03*
X69000D02*
D03*
X79000Y20000D02*
D03*
X69000D02*
D03*
X106000Y41653D02*
D03*
X96000D02*
D03*
X106000Y20000D02*
D03*
X96000D02*
D03*
X133000Y41653D02*
D03*
X123000D02*
D03*
X133000Y20000D02*
D03*
X123000D02*
D03*
X160000Y41653D02*
D03*
X150000D02*
D03*
X160000Y20000D02*
D03*
X150000D02*
D03*
X187000Y41653D02*
D03*
X177000D02*
D03*
X187000Y20000D02*
D03*
X177000D02*
D03*
X214000Y41653D02*
D03*
X204000D02*
D03*
X214000Y20000D02*
D03*
X204000D02*
D03*
X241000Y41653D02*
D03*
X231000D02*
D03*
X241000Y20000D02*
D03*
X231000D02*
D03*
X268000Y41653D02*
D03*
X258000D02*
D03*
X268000Y20000D02*
D03*
X258000D02*
D03*
X295000Y41653D02*
D03*
X285000D02*
D03*
X295000Y20000D02*
D03*
X285000D02*
D03*
X322000Y41653D02*
D03*
X312000D02*
D03*
X322000Y20000D02*
D03*
X312000D02*
D03*
X349000Y41653D02*
D03*
X339000D02*
D03*
X349000Y20000D02*
D03*
X339000D02*
D03*
X376000Y41653D02*
D03*
X366000D02*
D03*
X376000Y20000D02*
D03*
X366000D02*
D03*
X403000Y41653D02*
D03*
X393000D02*
D03*
X403000Y20000D02*
D03*
X393000D02*
D03*
X430000Y41653D02*
D03*
X420000D02*
D03*
X430000Y20000D02*
D03*
X420000D02*
D03*
X457000Y41653D02*
D03*
X447000D02*
D03*
X457000Y20000D02*
D03*
X447000D02*
D03*
X484000Y41653D02*
D03*
X474000D02*
D03*
X484000Y20000D02*
D03*
X474000D02*
D03*
X511000Y41653D02*
D03*
X501000D02*
D03*
X511000Y20000D02*
D03*
X501000D02*
D03*
X538000Y41653D02*
D03*
X528000D02*
D03*
X538000Y20000D02*
D03*
X528000D02*
D03*
X565000Y41653D02*
D03*
X555000D02*
D03*
X565000Y20000D02*
D03*
X555000D02*
D03*
X592000Y41653D02*
D03*
X582000D02*
D03*
X592000Y20000D02*
D03*
X582000D02*
D03*
X619000Y41653D02*
D03*
X609000D02*
D03*
X619000Y20000D02*
D03*
X609000D02*
D03*
X646000Y41653D02*
D03*
X636000D02*
D03*
X646000Y20000D02*
D03*
X636000D02*
D03*
D24*
X20000Y160000D02*
D03*
X223000Y85000D02*
D03*
X640000D02*
D03*
X20000D02*
D03*
X439000D02*
D03*
X330000Y160000D02*
D03*
D25*
X600000Y139000D02*
D03*
X597000Y156000D02*
D03*
X602890Y160110D02*
D03*
X605000Y140000D02*
D03*
X134000Y136000D02*
D03*
X129000Y134000D02*
D03*
X124000Y132000D02*
D03*
X119000Y130000D02*
D03*
X109000Y126000D02*
D03*
X114000Y128000D02*
D03*
X303000Y134000D02*
D03*
X323000Y126000D02*
D03*
X570000Y130051D02*
D03*
X335000Y136000D02*
D03*
X308000Y132000D02*
D03*
X318000Y128000D02*
D03*
X313000Y130000D02*
D03*
X560000Y134000D02*
D03*
X512000Y115000D02*
D03*
X507000Y124000D02*
D03*
Y115000D02*
D03*
X519000Y134000D02*
D03*
X524000Y132000D02*
D03*
X529000Y130000D02*
D03*
X534000Y128000D02*
D03*
X539000Y126000D02*
D03*
X565000Y132000D02*
D03*
X555000Y136000D02*
D03*
X607000Y145000D02*
D03*
Y150000D02*
D03*
Y156000D02*
D03*
X610972Y131972D02*
D03*
X300000Y113000D02*
D03*
X585921Y144079D02*
D03*
X89000Y115000D02*
D03*
X295000Y113000D02*
D03*
Y124000D02*
D03*
X306000Y101000D02*
D03*
X557874Y148126D02*
D03*
X355000Y122000D02*
D03*
X88000Y96000D02*
D03*
X283000D02*
D03*
X304000D02*
D03*
X149000Y109000D02*
D03*
X101000Y36000D02*
D03*
X209000D02*
D03*
X182000D02*
D03*
X155000D02*
D03*
X128000D02*
D03*
X74000D02*
D03*
X128000Y73000D02*
D03*
X47000Y67000D02*
D03*
X74000D02*
D03*
X101000Y73000D02*
D03*
X47000Y36000D02*
D03*
X182000Y76000D02*
D03*
X155000D02*
D03*
X317000Y36000D02*
D03*
X425000D02*
D03*
X398000D02*
D03*
X371000D02*
D03*
X344000D02*
D03*
X290000D02*
D03*
X236000D02*
D03*
X344000Y73000D02*
D03*
X263000Y67000D02*
D03*
X290000D02*
D03*
X317000Y73000D02*
D03*
X354500Y104500D02*
D03*
X305500Y109500D02*
D03*
X354500D02*
D03*
X263000Y36000D02*
D03*
Y92000D02*
D03*
X280000Y101000D02*
D03*
X398000Y76000D02*
D03*
X371000D02*
D03*
X418000Y99000D02*
D03*
X587000Y76000D02*
D03*
X496000Y101000D02*
D03*
X499000Y96000D02*
D03*
X522000Y101000D02*
D03*
X519000Y96000D02*
D03*
X479000Y92000D02*
D03*
Y36000D02*
D03*
X521500Y109500D02*
D03*
X533000Y73000D02*
D03*
X506000Y67000D02*
D03*
X479000D02*
D03*
X452000D02*
D03*
X560000Y73000D02*
D03*
X452000Y36000D02*
D03*
X506000D02*
D03*
X560000D02*
D03*
X587000D02*
D03*
X614000D02*
D03*
X641000D02*
D03*
X533000D02*
D03*
X628000Y153000D02*
D03*
Y133000D02*
D03*
Y128000D02*
D03*
Y138000D02*
D03*
Y143000D02*
D03*
X591000Y160000D02*
D03*
X627984Y148016D02*
D03*
X87000Y100000D02*
D03*
X75000Y109000D02*
D03*
X562000Y122000D02*
D03*
X568000Y120000D02*
D03*
X405000Y176000D02*
D03*
X425000D02*
D03*
X435000Y178000D02*
D03*
X620000Y176000D02*
D03*
X647693Y50693D02*
D03*
X620385D02*
D03*
X593385D02*
D03*
X512385D02*
D03*
X485385D02*
D03*
X458385D02*
D03*
X431385D02*
D03*
X404385D02*
D03*
X377385D02*
D03*
X296385D02*
D03*
X269385D02*
D03*
X242385D02*
D03*
X215385D02*
D03*
X188385D02*
D03*
X161386D02*
D03*
X80386D02*
D03*
X53386D02*
D03*
X26386D02*
D03*
X137000Y47000D02*
D03*
X110000D02*
D03*
X326000D02*
D03*
X353000D02*
D03*
X542000D02*
D03*
X569000D02*
D03*
X138500Y114500D02*
D03*
X570500Y99500D02*
D03*
X354000Y100000D02*
D03*
X139913Y94913D02*
D03*
X89500Y109500D02*
D03*
X138500D02*
D03*
Y104500D02*
D03*
Y99500D02*
D03*
X300000Y142000D02*
D03*
X560000Y165000D02*
D03*
X357000Y113000D02*
D03*
X575000Y128000D02*
D03*
X580000Y126000D02*
D03*
X570500Y104500D02*
D03*
X569000Y112000D02*
D03*
X597000Y117000D02*
D03*
X594000Y113000D02*
D03*
X602890Y117110D02*
D03*
X600000Y113000D02*
D03*
X578000Y116000D02*
D03*
X587000Y98000D02*
D03*
X584000Y102000D02*
D03*
X512000Y143000D02*
D03*
X611000Y117000D02*
D03*
X587142Y157142D02*
D03*
X205658Y76000D02*
D03*
X368000Y109000D02*
D03*
X366000Y115000D02*
D03*
X362000Y113000D02*
D03*
Y120000D02*
D03*
X356000Y96000D02*
D03*
X573000Y71000D02*
D03*
X357000D02*
D03*
X141000D02*
D03*
X625858Y170000D02*
D03*
X296000Y93000D02*
D03*
Y74000D02*
D03*
X66000Y105000D02*
D03*
X512000Y74000D02*
D03*
Y93000D02*
D03*
X82000Y75000D02*
D03*
Y91000D02*
D03*
X75000Y99000D02*
D03*
X425000Y69000D02*
D03*
X236000Y67000D02*
D03*
X592000Y82000D02*
D03*
X577949Y122000D02*
D03*
X573000Y115000D02*
D03*
X572000Y109000D02*
D03*
X589000Y102000D02*
D03*
X581000Y105000D02*
D03*
X599000Y99000D02*
D03*
X380000Y145000D02*
D03*
X385000Y104000D02*
D03*
X390000Y145000D02*
D03*
X395000Y176000D02*
D03*
X430000Y145000D02*
D03*
X440000D02*
D03*
X420000Y150000D02*
D03*
X410000D02*
D03*
X400000D02*
D03*
X483000Y110000D02*
D03*
X155000Y104000D02*
D03*
X165000Y99500D02*
D03*
X475000Y138000D02*
D03*
X582250Y111250D02*
D03*
X89000Y138000D02*
D03*
X124000Y141000D02*
D03*
X109000Y145000D02*
D03*
X129000Y141000D02*
D03*
X87000Y64000D02*
D03*
X109000Y149000D02*
D03*
X143000Y122000D02*
D03*
X149000Y114000D02*
D03*
X150000Y120000D02*
D03*
X155000Y124000D02*
D03*
X650000Y180000D02*
D03*
X540000Y69000D02*
D03*
X324000D02*
D03*
X108000D02*
D03*
X175000Y120000D02*
D03*
X185000Y122000D02*
D03*
X195000Y124035D02*
D03*
X205000Y125965D02*
D03*
X215000Y128035D02*
D03*
X225000Y129965D02*
D03*
X235000Y131965D02*
D03*
X245000Y134000D02*
D03*
X255000Y136000D02*
D03*
X597000Y86000D02*
D03*
X605896Y91896D02*
D03*
X604000Y87000D02*
D03*
X615000Y104000D02*
D03*
X620000Y106000D02*
D03*
X625000Y108000D02*
D03*
M02*
