G04 Layer_Color=65535*
%FSLAX25Y25*%
%MOIN*%
G70*
G01*
G75*
%ADD16C,0.00787*%
%ADD30C,0.00984*%
%ADD31C,0.01575*%
%ADD32C,0.02362*%
%ADD33C,0.01000*%
%ADD34C,0.00800*%
G36*
X44056Y135553D02*
X44493Y135517D01*
X45003Y135480D01*
X45550Y135371D01*
X46097Y135262D01*
X46680Y135116D01*
X46753Y135079D01*
X46935Y135043D01*
X47227Y134897D01*
X47555Y134751D01*
X47956Y134569D01*
X48393Y134314D01*
X48830Y134022D01*
X49231Y133694D01*
X49268Y133658D01*
X49414Y133512D01*
X49596Y133293D01*
X49851Y133038D01*
X50106Y132674D01*
X50398Y132273D01*
X50653Y131799D01*
X50908Y131289D01*
X50945Y131216D01*
X51017Y131033D01*
X51090Y130742D01*
X51200Y130304D01*
X51309Y129831D01*
X51418Y129247D01*
X51455Y128591D01*
X51491Y127899D01*
Y127862D01*
Y127826D01*
Y127717D01*
Y127571D01*
X51455Y127243D01*
X51418Y126769D01*
X51345Y126258D01*
X51273Y125712D01*
X51127Y125165D01*
X50945Y124618D01*
X50908Y124545D01*
X50835Y124399D01*
X50726Y124144D01*
X50580Y123816D01*
X50361Y123452D01*
X50106Y123087D01*
X49815Y122723D01*
X49450Y122358D01*
X49414Y122322D01*
X49268Y122213D01*
X49049Y122030D01*
X48794Y121848D01*
X48430Y121629D01*
X47992Y121411D01*
X47518Y121192D01*
X47008Y121010D01*
X46935Y120973D01*
X46753Y120937D01*
X46461Y120864D01*
X46060Y120755D01*
X45550Y120682D01*
X45003Y120609D01*
X44383Y120572D01*
X43691Y120536D01*
X43399D01*
X43035Y120572D01*
X42597Y120609D01*
X42124Y120645D01*
X41540Y120718D01*
X40994Y120864D01*
X40410Y121010D01*
X40337Y121046D01*
X40155Y121082D01*
X39900Y121228D01*
X39536Y121374D01*
X39135Y121556D01*
X38697Y121812D01*
X38260Y122103D01*
X37859Y122468D01*
X37822Y122504D01*
X37677Y122650D01*
X37495Y122832D01*
X37276Y123124D01*
X36984Y123488D01*
X36729Y123889D01*
X36474Y124363D01*
X36219Y124873D01*
X36182Y124946D01*
X36146Y125128D01*
X36037Y125420D01*
X35927Y125857D01*
X35818Y126331D01*
X35745Y126915D01*
X35672Y127571D01*
X35636Y128263D01*
Y128300D01*
Y128336D01*
Y128445D01*
Y128591D01*
X35672Y128919D01*
X35708Y129357D01*
X35745Y129867D01*
X35854Y130414D01*
X35963Y130961D01*
X36146Y131507D01*
X36182Y131580D01*
X36255Y131726D01*
X36364Y131981D01*
X36510Y132309D01*
X36729Y132674D01*
X36984Y133075D01*
X37312Y133439D01*
X37640Y133804D01*
X37677Y133840D01*
X37822Y133949D01*
X38041Y134132D01*
X38333Y134314D01*
X38697Y134533D01*
X39098Y134751D01*
X39572Y134970D01*
X40082Y135152D01*
X40155D01*
X40337Y135225D01*
X40629Y135298D01*
X41030Y135371D01*
X41540Y135444D01*
X42087Y135517D01*
X42707Y135553D01*
X43399Y135590D01*
X43691D01*
X44056Y135553D01*
D02*
G37*
G36*
X50835Y146160D02*
X50872D01*
X50908Y146087D01*
X50945Y146014D01*
X51017Y145905D01*
Y145869D01*
X51054Y145759D01*
X51090Y145577D01*
X51127Y145358D01*
Y145285D01*
X51163Y145140D01*
X51200Y144884D01*
Y144556D01*
Y144520D01*
Y144483D01*
Y144265D01*
X51163Y143973D01*
X51127Y143718D01*
Y143645D01*
X51090Y143536D01*
X51054Y143353D01*
X51017Y143208D01*
Y143171D01*
X50981Y143098D01*
X50908Y143026D01*
X50835Y142953D01*
X50799Y142916D01*
X50762Y142880D01*
X50653Y142843D01*
X48794D01*
X48830Y142807D01*
X48940Y142734D01*
X49086Y142661D01*
X49268Y142515D01*
X49705Y142187D01*
X50106Y141823D01*
X50143Y141786D01*
X50179Y141750D01*
X50398Y141495D01*
X50653Y141203D01*
X50908Y140875D01*
Y140838D01*
X50945Y140802D01*
X51090Y140583D01*
X51236Y140328D01*
X51345Y140000D01*
Y139964D01*
X51382Y139927D01*
X51418Y139708D01*
X51455Y139453D01*
X51491Y139125D01*
Y139089D01*
Y138979D01*
Y138834D01*
X51455Y138688D01*
Y138651D01*
X51418Y138542D01*
X51382Y138360D01*
X51345Y138178D01*
Y138141D01*
X51309Y138032D01*
X51236Y137740D01*
Y137704D01*
X51200Y137631D01*
X51163Y137558D01*
X51090Y137485D01*
Y137449D01*
X51054Y137412D01*
X50908Y137339D01*
X50835Y137303D01*
X50762D01*
X50653Y137266D01*
X50616D01*
X50543Y137230D01*
X50106D01*
X49960Y137194D01*
X48612D01*
X48320Y137230D01*
X48284D01*
X48138Y137266D01*
X47956Y137303D01*
X47773Y137339D01*
X47737D01*
X47664Y137376D01*
X47555Y137449D01*
X47482Y137522D01*
X47445Y137594D01*
X47409Y137667D01*
Y137777D01*
Y137813D01*
Y137849D01*
X47445Y138068D01*
Y138105D01*
X47482Y138178D01*
X47518Y138287D01*
X47555Y138433D01*
Y138469D01*
X47591Y138542D01*
X47664Y138688D01*
X47701Y138870D01*
Y138907D01*
X47737Y139016D01*
X47773Y139162D01*
Y139344D01*
Y139417D01*
Y139563D01*
X47701Y139781D01*
X47628Y140037D01*
X47591Y140109D01*
X47518Y140255D01*
X47372Y140474D01*
X47190Y140729D01*
X47154Y140802D01*
X46971Y140948D01*
X46753Y141166D01*
X46425Y141458D01*
X46388D01*
X46352Y141531D01*
X46242Y141604D01*
X46097Y141677D01*
X45732Y141932D01*
X45258Y142260D01*
X36401D01*
X36328Y142297D01*
X36219Y142369D01*
Y142406D01*
X36146Y142442D01*
X36109Y142552D01*
X36037Y142697D01*
Y142734D01*
X36000Y142843D01*
Y143062D01*
X35963Y143317D01*
Y143390D01*
X35927Y143572D01*
X35891Y143864D01*
Y144265D01*
Y144301D01*
Y144374D01*
Y144483D01*
Y144593D01*
X35927Y144921D01*
X35963Y145249D01*
Y145322D01*
X36000Y145468D01*
Y145650D01*
X36037Y145832D01*
Y145869D01*
X36073Y145941D01*
X36146Y146051D01*
X36219Y146160D01*
X36255D01*
X36292Y146197D01*
X36510Y146233D01*
X50653D01*
X50835Y146160D01*
D02*
G37*
G36*
X38552Y105373D02*
X38843Y105300D01*
X38880D01*
X38989Y105263D01*
X39135Y105190D01*
X39281Y105117D01*
X39317Y105081D01*
X39426Y105045D01*
X39572Y104935D01*
X39791Y104826D01*
X47956Y99541D01*
Y104534D01*
Y104571D01*
X47992Y104717D01*
X48101Y104899D01*
X48320Y105045D01*
X48357D01*
X48393Y105081D01*
X48466D01*
X48612Y105117D01*
X48757Y105154D01*
X48976D01*
X49231Y105190D01*
X50033D01*
X50252Y105154D01*
X50325D01*
X50434Y105117D01*
X50616Y105081D01*
X50762Y105045D01*
X50799D01*
X50872Y105008D01*
X50945Y104935D01*
X51017Y104862D01*
X51054Y104826D01*
X51090Y104753D01*
X51127Y104644D01*
Y104534D01*
Y95969D01*
Y95932D01*
Y95823D01*
X51054Y95604D01*
Y95568D01*
X51017Y95495D01*
X50981Y95422D01*
X50872Y95349D01*
X50835Y95312D01*
X50799Y95276D01*
X50689Y95240D01*
X50543Y95167D01*
X50507D01*
X50398Y95130D01*
X50216Y95094D01*
X48830D01*
X48648Y95130D01*
X48612D01*
X48502Y95167D01*
X48357Y95203D01*
X48211Y95240D01*
X48174D01*
X48065Y95276D01*
X47919Y95349D01*
X47773Y95422D01*
X47737D01*
X47628Y95495D01*
X47482Y95568D01*
X47300Y95677D01*
X39171Y100889D01*
Y95385D01*
Y95349D01*
Y95312D01*
X39098Y95130D01*
Y95094D01*
X39025Y95057D01*
X38952Y94984D01*
X38843Y94911D01*
X38807Y94875D01*
X38734Y94839D01*
X38588Y94802D01*
X38369Y94766D01*
X38333D01*
X38151Y94729D01*
X37932Y94693D01*
X37312D01*
X37057Y94729D01*
X36802Y94766D01*
X36765D01*
X36620Y94802D01*
X36474Y94839D01*
X36292Y94875D01*
X36255D01*
X36182Y94911D01*
X36109Y94984D01*
X36037Y95094D01*
Y95130D01*
Y95167D01*
X36000Y95385D01*
Y104534D01*
Y104607D01*
X36037Y104789D01*
X36109Y105008D01*
X36255Y105190D01*
X36328Y105227D01*
X36474Y105300D01*
X36765Y105373D01*
X37203Y105409D01*
X38442D01*
X38552Y105373D01*
D02*
G37*
G36*
X39208Y118167D02*
X39317Y118130D01*
X39463Y118094D01*
X39499D01*
X39572Y118057D01*
X39645Y117984D01*
X39718Y117948D01*
Y117911D01*
X39754Y117875D01*
X39791Y117693D01*
Y117656D01*
X39754Y117583D01*
X39718Y117438D01*
X39572Y117219D01*
X39536Y117146D01*
X39463Y116964D01*
X39317Y116709D01*
X39135Y116344D01*
Y116308D01*
X39098Y116235D01*
X39062Y116162D01*
X38989Y116016D01*
X38843Y115652D01*
X38697Y115178D01*
Y115141D01*
X38661Y115068D01*
X38624Y114922D01*
Y114740D01*
X38588Y114522D01*
X38552Y114266D01*
X38515Y113647D01*
Y113610D01*
Y113574D01*
Y113355D01*
X38552Y113064D01*
X38624Y112735D01*
Y112699D01*
X38661Y112663D01*
X38697Y112480D01*
X38807Y112225D01*
X38916Y112006D01*
X38952Y111934D01*
X39062Y111824D01*
X39208Y111678D01*
X39426Y111533D01*
X39499Y111496D01*
X39645Y111423D01*
X39864Y111387D01*
X40155Y111350D01*
X40228D01*
X40447Y111387D01*
X40702Y111460D01*
X40957Y111642D01*
X41030Y111678D01*
X41176Y111861D01*
X41358Y112116D01*
X41577Y112444D01*
Y112480D01*
X41613Y112517D01*
X41686Y112626D01*
X41723Y112772D01*
X41868Y113100D01*
X42051Y113537D01*
Y113574D01*
X42087Y113647D01*
X42124Y113756D01*
X42197Y113902D01*
X42342Y114303D01*
X42524Y114777D01*
Y114813D01*
X42561Y114886D01*
X42634Y114995D01*
X42707Y115178D01*
X42926Y115542D01*
X43144Y116016D01*
Y116052D01*
X43217Y116125D01*
X43290Y116235D01*
X43399Y116381D01*
X43655Y116709D01*
X43982Y117110D01*
X44019Y117146D01*
X44092Y117182D01*
X44165Y117292D01*
X44311Y117365D01*
X44712Y117620D01*
X45185Y117875D01*
X45222D01*
X45331Y117911D01*
X45477Y117948D01*
X45696Y117984D01*
X45951Y118057D01*
X46242Y118094D01*
X46571Y118130D01*
X47117D01*
X47300Y118094D01*
X47518D01*
X47810Y118057D01*
X48138Y117984D01*
X48757Y117766D01*
X48794Y117729D01*
X48903Y117693D01*
X49049Y117583D01*
X49268Y117474D01*
X49705Y117110D01*
X50179Y116636D01*
X50216Y116599D01*
X50288Y116490D01*
X50398Y116344D01*
X50543Y116125D01*
X50689Y115870D01*
X50835Y115542D01*
X50981Y115178D01*
X51127Y114813D01*
Y114777D01*
X51200Y114631D01*
X51236Y114412D01*
X51309Y114121D01*
X51382Y113756D01*
X51418Y113355D01*
X51491Y112918D01*
Y112444D01*
Y112407D01*
Y112335D01*
Y112189D01*
Y112043D01*
X51455Y111642D01*
X51382Y111168D01*
Y111132D01*
Y111059D01*
X51345Y110950D01*
X51309Y110804D01*
X51236Y110439D01*
X51127Y110038D01*
Y110002D01*
X51090Y109965D01*
X51017Y109747D01*
X50945Y109455D01*
X50799Y109200D01*
X50762Y109127D01*
X50726Y108981D01*
X50616Y108835D01*
X50543Y108690D01*
Y108653D01*
X50471Y108617D01*
X50398Y108544D01*
X50288Y108507D01*
X50252D01*
X50216Y108471D01*
X49997Y108398D01*
X49960D01*
X49887Y108361D01*
X49778D01*
X49596Y108325D01*
X49559D01*
X49450Y108289D01*
X48539D01*
X48284Y108325D01*
X48247D01*
X48138Y108361D01*
X47992Y108398D01*
X47883Y108434D01*
X47846D01*
X47810Y108471D01*
X47664Y108580D01*
Y108617D01*
X47628Y108762D01*
Y108799D01*
X47664Y108872D01*
X47701Y109018D01*
X47773Y109236D01*
X47810Y109273D01*
X47883Y109419D01*
X47992Y109674D01*
X48138Y109965D01*
Y110002D01*
X48174Y110038D01*
X48247Y110257D01*
X48357Y110585D01*
X48502Y111022D01*
Y111059D01*
X48539Y111132D01*
X48575Y111241D01*
X48612Y111387D01*
X48648Y111824D01*
X48685Y112335D01*
Y112371D01*
Y112407D01*
Y112663D01*
X48612Y112954D01*
X48539Y113282D01*
X48502Y113355D01*
X48466Y113501D01*
X48357Y113720D01*
X48211Y113938D01*
X48174Y113975D01*
X48101Y114084D01*
X47919Y114193D01*
X47737Y114303D01*
X47701D01*
X47555Y114339D01*
X47372Y114376D01*
X47154Y114412D01*
X47081D01*
X46862Y114376D01*
X46607Y114303D01*
X46352Y114121D01*
X46315Y114084D01*
X46169Y113902D01*
X45951Y113683D01*
X45769Y113355D01*
Y113319D01*
X45732Y113282D01*
X45696Y113173D01*
X45623Y113027D01*
X45477Y112663D01*
X45295Y112225D01*
Y112189D01*
X45258Y112116D01*
X45222Y112006D01*
X45149Y111824D01*
X45003Y111423D01*
X44821Y110986D01*
Y110950D01*
X44784Y110877D01*
X44712Y110731D01*
X44639Y110585D01*
X44456Y110184D01*
X44201Y109710D01*
Y109674D01*
X44128Y109601D01*
X44056Y109492D01*
X43982Y109346D01*
X43727Y108981D01*
X43363Y108617D01*
X43326Y108580D01*
X43290Y108544D01*
X43181Y108434D01*
X43035Y108325D01*
X42634Y108070D01*
X42124Y107815D01*
X42087D01*
X42014Y107778D01*
X41868Y107705D01*
X41650Y107633D01*
X41431Y107596D01*
X41139Y107523D01*
X40483Y107487D01*
X40265D01*
X40046Y107523D01*
X39754Y107560D01*
X39426Y107596D01*
X39098Y107669D01*
X38734Y107815D01*
X38369Y107960D01*
X38333Y107997D01*
X38223Y108033D01*
X38041Y108143D01*
X37822Y108289D01*
X37604Y108471D01*
X37349Y108690D01*
X37093Y108945D01*
X36838Y109236D01*
X36802Y109273D01*
X36729Y109382D01*
X36620Y109564D01*
X36510Y109783D01*
X36328Y110075D01*
X36182Y110403D01*
X36037Y110767D01*
X35927Y111168D01*
Y111205D01*
X35891Y111350D01*
X35854Y111569D01*
X35781Y111861D01*
X35745Y112225D01*
X35672Y112626D01*
X35636Y113100D01*
Y113574D01*
Y113610D01*
Y113720D01*
Y113865D01*
X35672Y114048D01*
X35708Y114558D01*
X35781Y115105D01*
Y115141D01*
X35818Y115214D01*
Y115360D01*
X35854Y115506D01*
X35927Y115943D01*
X36037Y116381D01*
Y116417D01*
X36073Y116453D01*
X36146Y116709D01*
X36255Y117000D01*
X36401Y117328D01*
X36437Y117401D01*
X36510Y117547D01*
X36620Y117729D01*
X36765Y117875D01*
X36802Y117911D01*
X36911Y117948D01*
X37057Y118057D01*
X37276Y118130D01*
X37349D01*
X37531Y118167D01*
X37859Y118203D01*
X39062D01*
X39208Y118167D01*
D02*
G37*
G36*
X57506Y177580D02*
X57542Y177544D01*
X57578Y177507D01*
X57651Y177398D01*
X57724Y177252D01*
X57761Y177216D01*
X57797Y177106D01*
X57834Y176924D01*
X57870Y176669D01*
Y176632D01*
Y176596D01*
X57906Y176377D01*
X57943Y176086D01*
Y175685D01*
Y175648D01*
Y175575D01*
Y175357D01*
X57906Y175029D01*
X57870Y174737D01*
Y174700D01*
Y174664D01*
X57834Y174518D01*
X57797Y174300D01*
X57724Y174117D01*
Y174081D01*
X57688Y174008D01*
X57615Y173899D01*
X57506Y173789D01*
Y173753D01*
X57433Y173716D01*
X57360Y173680D01*
X44894D01*
X50471Y169561D01*
X50507Y169525D01*
X50580Y169488D01*
X50799Y169306D01*
X50835Y169270D01*
X50872Y169197D01*
X50945Y169051D01*
X51017Y168869D01*
Y168832D01*
X51054Y168686D01*
X51090Y168504D01*
X51127Y168249D01*
Y168212D01*
Y168176D01*
X51163Y167957D01*
X51200Y167666D01*
Y167228D01*
Y167192D01*
Y167119D01*
Y167009D01*
Y166900D01*
X51163Y166572D01*
X51127Y166244D01*
Y166208D01*
Y166171D01*
X51090Y166025D01*
X51054Y165807D01*
X51017Y165624D01*
Y165588D01*
X50981Y165479D01*
X50908Y165369D01*
X50835Y165260D01*
X50799Y165224D01*
X50762Y165187D01*
X50653Y165151D01*
X50398D01*
X50216Y165224D01*
X50033Y165296D01*
X49997Y165333D01*
X49851Y165369D01*
X49669Y165479D01*
X49450Y165624D01*
X44821Y169707D01*
X37458Y164968D01*
X37422Y164932D01*
X37276Y164859D01*
X37093Y164786D01*
X36911Y164713D01*
X36875Y164677D01*
X36765Y164640D01*
X36620Y164604D01*
X36401D01*
X36292Y164640D01*
X36219Y164713D01*
X36146Y164786D01*
X36109Y164895D01*
X36037Y165041D01*
Y165078D01*
X36000Y165187D01*
Y165406D01*
X35963Y165661D01*
Y165734D01*
X35927Y165916D01*
X35891Y166244D01*
Y166682D01*
Y166718D01*
Y166791D01*
Y166900D01*
Y167046D01*
Y167374D01*
X35927Y167702D01*
Y167775D01*
X35963Y167921D01*
Y168176D01*
X36000Y168395D01*
Y168431D01*
X36037Y168541D01*
X36109Y168686D01*
X36182Y168796D01*
X36219D01*
X36292Y168869D01*
X36401Y168941D01*
X36547Y169014D01*
X43946Y173680D01*
X36401D01*
X36328Y173716D01*
X36219Y173789D01*
Y173826D01*
X36146Y173862D01*
X36109Y173971D01*
X36037Y174117D01*
Y174154D01*
X36000Y174263D01*
Y174482D01*
X35963Y174737D01*
Y174810D01*
X35927Y174992D01*
X35891Y175284D01*
Y175685D01*
Y175721D01*
Y175794D01*
Y175903D01*
Y176013D01*
X35927Y176341D01*
X35963Y176669D01*
Y176742D01*
X36000Y176888D01*
Y177070D01*
X36037Y177252D01*
Y177288D01*
X36073Y177361D01*
X36146Y177471D01*
X36219Y177580D01*
X36255D01*
X36292Y177617D01*
X36510Y177653D01*
X57323D01*
X57506Y177580D01*
D02*
G37*
G36*
X56084Y185927D02*
X56120Y185891D01*
X56157Y185854D01*
X56230Y185708D01*
X56303Y185563D01*
Y185526D01*
X56339Y185380D01*
X56375Y185198D01*
X56412Y184943D01*
Y184906D01*
Y184870D01*
X56449Y184651D01*
X56485Y184360D01*
Y183922D01*
Y183886D01*
Y183813D01*
Y183704D01*
Y183594D01*
X56449Y183266D01*
X56412Y182938D01*
Y182902D01*
Y182865D01*
X56375Y182720D01*
X56339Y182501D01*
X56303Y182319D01*
Y182282D01*
X56266Y182173D01*
X56193Y182063D01*
X56084Y181954D01*
X56047Y181918D01*
X56011Y181881D01*
X55902Y181845D01*
X36437D01*
X36328Y181881D01*
X36219Y181954D01*
Y181991D01*
X36146Y182027D01*
X36109Y182136D01*
X36037Y182319D01*
Y182355D01*
X36000Y182464D01*
Y182683D01*
X35963Y182938D01*
Y183011D01*
X35927Y183193D01*
X35891Y183521D01*
Y183922D01*
Y183959D01*
Y184032D01*
Y184141D01*
Y184287D01*
X35927Y184615D01*
X35963Y184943D01*
Y185016D01*
X36000Y185162D01*
Y185380D01*
X36037Y185599D01*
Y185635D01*
X36073Y185708D01*
X36146Y185818D01*
X36219Y185927D01*
X36255D01*
X36328Y185964D01*
X36547Y186000D01*
X55902D01*
X56084Y185927D01*
D02*
G37*
G36*
X40629Y162964D02*
X40921Y162927D01*
X41249Y162891D01*
X41613Y162781D01*
X41978Y162672D01*
X42306Y162526D01*
X42342Y162490D01*
X42452Y162453D01*
X42634Y162308D01*
X42853Y162162D01*
X43071Y161979D01*
X43326Y161724D01*
X43582Y161433D01*
X43800Y161105D01*
X43837Y161068D01*
X43910Y160922D01*
X44019Y160740D01*
X44165Y160449D01*
X44311Y160120D01*
X44456Y159720D01*
X44602Y159246D01*
X44712Y158735D01*
Y158662D01*
X44748Y158480D01*
X44821Y158189D01*
X44857Y157788D01*
X44930Y157314D01*
X44967Y156767D01*
X45003Y156111D01*
Y155455D01*
Y154070D01*
X46242D01*
X46607Y154143D01*
X46971Y154216D01*
X47008D01*
X47044Y154252D01*
X47263Y154325D01*
X47555Y154471D01*
X47810Y154690D01*
X47883Y154726D01*
X47992Y154908D01*
X48138Y155163D01*
X48284Y155491D01*
Y155528D01*
X48320Y155564D01*
X48357Y155674D01*
X48393Y155819D01*
X48430Y156220D01*
X48466Y156731D01*
Y156767D01*
Y156913D01*
Y157095D01*
X48430Y157350D01*
X48357Y157897D01*
X48211Y158517D01*
Y158553D01*
X48174Y158662D01*
X48138Y158808D01*
X48065Y158991D01*
X47919Y159428D01*
X47737Y159902D01*
Y159938D01*
X47701Y160011D01*
X47664Y160120D01*
X47591Y160230D01*
X47445Y160558D01*
X47263Y160886D01*
X47227Y160959D01*
X47154Y161105D01*
X47081Y161323D01*
X47044Y161542D01*
Y161579D01*
Y161651D01*
X47081Y161761D01*
X47154Y161870D01*
X47190D01*
X47227Y161943D01*
X47445Y162089D01*
X47482D01*
X47591Y162125D01*
X47737Y162162D01*
X47956Y162198D01*
X48138D01*
X48357Y162235D01*
X48903D01*
X49122Y162198D01*
X49377Y162162D01*
X49414D01*
X49559Y162089D01*
X49705Y162016D01*
X49887Y161870D01*
X49924Y161834D01*
X50033Y161688D01*
X50216Y161469D01*
X50398Y161105D01*
Y161068D01*
X50434Y160995D01*
X50507Y160886D01*
X50580Y160740D01*
X50726Y160339D01*
X50908Y159829D01*
Y159792D01*
X50945Y159683D01*
X50981Y159537D01*
X51054Y159319D01*
X51127Y159100D01*
X51200Y158808D01*
X51309Y158189D01*
Y158152D01*
X51345Y158043D01*
X51382Y157861D01*
X51418Y157642D01*
Y157350D01*
X51455Y157059D01*
X51491Y156403D01*
Y156366D01*
Y156330D01*
Y156111D01*
Y155819D01*
X51455Y155419D01*
X51418Y154981D01*
X51345Y154507D01*
X51273Y154033D01*
X51163Y153560D01*
Y153523D01*
X51090Y153377D01*
X51017Y153158D01*
X50908Y152867D01*
X50580Y152284D01*
X50398Y151956D01*
X50143Y151664D01*
X50106Y151628D01*
X50033Y151555D01*
X49887Y151409D01*
X49669Y151227D01*
X49450Y151044D01*
X49158Y150862D01*
X48794Y150680D01*
X48430Y150534D01*
X48393D01*
X48247Y150461D01*
X48028Y150425D01*
X47737Y150352D01*
X47336Y150279D01*
X46935Y150243D01*
X46425Y150170D01*
X36437D01*
X36328Y150206D01*
X36219Y150243D01*
X36109Y150352D01*
Y150388D01*
X36037Y150461D01*
X36000Y150644D01*
X35963Y150862D01*
Y150935D01*
X35927Y151117D01*
X35891Y151409D01*
Y151846D01*
Y151883D01*
Y151956D01*
Y152065D01*
Y152247D01*
X35927Y152575D01*
X35963Y152867D01*
Y152903D01*
X36000Y153049D01*
X36037Y153195D01*
X36109Y153341D01*
X36146Y153377D01*
X36182Y153414D01*
X36292Y153450D01*
X36437Y153487D01*
X37567D01*
X37531Y153523D01*
X37422Y153632D01*
X37239Y153815D01*
X37057Y154033D01*
X36838Y154325D01*
X36583Y154653D01*
X36364Y155054D01*
X36146Y155455D01*
X36109Y155491D01*
X36073Y155637D01*
X36000Y155856D01*
X35891Y156184D01*
X35781Y156548D01*
X35708Y156949D01*
X35672Y157387D01*
X35636Y157897D01*
Y157933D01*
Y158079D01*
Y158298D01*
X35672Y158590D01*
X35708Y158918D01*
X35745Y159246D01*
X35927Y159975D01*
Y160011D01*
X36000Y160120D01*
X36037Y160303D01*
X36146Y160521D01*
X36401Y161032D01*
X36765Y161579D01*
X36802Y161615D01*
X36875Y161688D01*
X36984Y161834D01*
X37166Y161979D01*
X37385Y162125D01*
X37604Y162308D01*
X38187Y162636D01*
X38223D01*
X38333Y162708D01*
X38515Y162745D01*
X38770Y162818D01*
X39062Y162891D01*
X39390Y162927D01*
X39791Y163000D01*
X40410D01*
X40629Y162964D01*
D02*
G37*
%LPC*%
G36*
X43982Y131507D02*
X43217D01*
X42962Y131471D01*
X42634D01*
X42306Y131434D01*
X41650Y131361D01*
X41613D01*
X41504Y131325D01*
X41322Y131289D01*
X41139Y131216D01*
X40629Y131070D01*
X40119Y130815D01*
X40082Y130778D01*
X40009Y130742D01*
X39900Y130669D01*
X39754Y130523D01*
X39426Y130195D01*
X39135Y129758D01*
Y129721D01*
X39098Y129648D01*
X39025Y129502D01*
X38989Y129320D01*
X38916Y129065D01*
X38843Y128773D01*
X38807Y128482D01*
Y128117D01*
Y128081D01*
Y127972D01*
Y127789D01*
X38843Y127571D01*
X38916Y127060D01*
X39098Y126550D01*
Y126514D01*
X39171Y126441D01*
X39244Y126331D01*
X39353Y126186D01*
X39645Y125821D01*
X40046Y125493D01*
X40082Y125457D01*
X40155Y125420D01*
X40301Y125347D01*
X40483Y125238D01*
X40702Y125128D01*
X40957Y125019D01*
X41540Y124837D01*
X41577D01*
X41686Y124801D01*
X41868Y124764D01*
X42124Y124727D01*
X42415Y124691D01*
X42743Y124655D01*
X43144Y124618D01*
X43910D01*
X44165Y124655D01*
X44456D01*
X44784Y124691D01*
X45441Y124801D01*
X45477D01*
X45586Y124837D01*
X45769Y124873D01*
X45951Y124946D01*
X46461Y125128D01*
X46971Y125384D01*
X47008D01*
X47081Y125457D01*
X47190Y125529D01*
X47336Y125639D01*
X47664Y125967D01*
X47992Y126404D01*
Y126441D01*
X48065Y126514D01*
X48101Y126659D01*
X48174Y126842D01*
X48247Y127097D01*
X48284Y127388D01*
X48357Y127680D01*
Y128044D01*
Y128081D01*
Y128190D01*
Y128373D01*
X48320Y128555D01*
X48211Y129065D01*
X48028Y129612D01*
Y129648D01*
X47956Y129721D01*
X47883Y129831D01*
X47773Y129976D01*
X47482Y130341D01*
X47081Y130705D01*
X47044D01*
X46971Y130778D01*
X46826Y130851D01*
X46680Y130924D01*
X46461Y131033D01*
X46206Y131143D01*
X45586Y131325D01*
X45550D01*
X45441Y131361D01*
X45258Y131398D01*
X45003D01*
X44712Y131434D01*
X44383Y131471D01*
X43982Y131507D01*
D02*
G37*
G36*
X40337Y159136D02*
X40192D01*
X40009Y159100D01*
X39827Y159063D01*
X39609Y158991D01*
X39353Y158918D01*
X39135Y158772D01*
X38916Y158590D01*
X38880Y158553D01*
X38843Y158480D01*
X38770Y158371D01*
X38697Y158189D01*
X38588Y157970D01*
X38515Y157715D01*
X38479Y157423D01*
X38442Y157059D01*
Y157022D01*
Y156913D01*
X38479Y156767D01*
Y156548D01*
X38624Y156075D01*
X38697Y155783D01*
X38843Y155528D01*
X38880Y155491D01*
X38916Y155419D01*
X39025Y155273D01*
X39171Y155054D01*
X39353Y154835D01*
X39572Y154617D01*
X39827Y154325D01*
X40119Y154070D01*
X42524D01*
Y155601D01*
Y155637D01*
Y155746D01*
Y155929D01*
Y156148D01*
X42452Y156694D01*
X42379Y157241D01*
Y157277D01*
X42342Y157350D01*
X42306Y157460D01*
X42269Y157605D01*
X42124Y157970D01*
X41941Y158334D01*
X41905Y158407D01*
X41759Y158590D01*
X41540Y158772D01*
X41249Y158954D01*
X41176Y158991D01*
X40994Y159027D01*
X40702Y159100D01*
X40337Y159136D01*
D02*
G37*
%LPD*%
D16*
X110457Y77315D02*
Y116685D01*
X117543Y77315D02*
Y116685D01*
X110457D02*
X117543D01*
X110457Y77315D02*
X117543D01*
X326457D02*
Y116685D01*
X333543Y77315D02*
Y116685D01*
X326457D02*
X333543D01*
X326457Y77315D02*
X333543D01*
X542457D02*
Y116685D01*
X549543Y77315D02*
Y116685D01*
X542457D02*
X549543D01*
X542457Y77315D02*
X549543D01*
X583795Y136795D02*
Y161205D01*
X608205Y136795D02*
Y161205D01*
X583795D02*
X608205D01*
X583795Y136795D02*
X608205D01*
D30*
X105043Y117847D02*
G03*
X105043Y117847I-492J0D01*
G01*
X321043D02*
G03*
X321043Y117847I-492J0D01*
G01*
X537043D02*
G03*
X537043Y117847I-492J0D01*
G01*
X579465Y162583D02*
G03*
X579465Y162583I-492J0D01*
G01*
D31*
X114394Y113535D02*
G03*
X114394Y113535I-787J0D01*
G01*
X330394D02*
G03*
X330394Y113535I-787J0D01*
G01*
X546394D02*
G03*
X546394Y113535I-787J0D01*
G01*
D32*
X588913Y157268D02*
G03*
X588913Y157268I-1181J0D01*
G01*
D33*
X89976Y62331D02*
X112024D01*
Y53669D02*
Y62331D01*
X89976Y53669D02*
X112024D01*
X89976D02*
Y62331D01*
X62976D02*
X85024D01*
Y53669D02*
Y62331D01*
X62976Y53669D02*
X85024D01*
X62976D02*
Y62331D01*
X35976D02*
X58024D01*
Y53669D02*
Y62331D01*
X35976Y53669D02*
X58024D01*
X35976D02*
Y62331D01*
X8976D02*
X31024D01*
Y53669D02*
Y62331D01*
X8976Y53669D02*
X31024D01*
X8976D02*
Y62331D01*
X602976D02*
X625023D01*
Y53669D02*
Y62331D01*
X602976Y53669D02*
X625023D01*
X602976D02*
Y62331D01*
X630000Y170000D02*
X653000D01*
Y110000D02*
Y170000D01*
X630000Y110000D02*
X653000D01*
X630000D02*
Y170000D01*
X354500Y142000D02*
Y178000D01*
X455500D01*
X412500Y142000D02*
X455500D01*
Y178000D01*
X354500Y142000D02*
X397500D01*
Y147000D01*
X359000D02*
X397500D01*
X359000D02*
Y173000D01*
X451000D01*
Y147000D02*
Y173000D01*
X412500Y147000D02*
X451000D01*
X412500Y142000D02*
Y147000D01*
X580150Y166457D02*
Y173543D01*
X565976D02*
X580150D01*
X565976Y166457D02*
Y173543D01*
Y166457D02*
X580150D01*
X475000Y155000D02*
Y177500D01*
X495000D01*
Y155000D02*
Y177500D01*
X475000Y155000D02*
X495000D01*
X508496Y143000D02*
X553996D01*
X508496Y161000D02*
X553996D01*
X508496Y143000D02*
Y146000D01*
Y158000D02*
Y161000D01*
X553996Y158000D02*
Y161000D01*
Y143000D02*
Y146000D01*
X116976Y62331D02*
X139024D01*
Y53669D02*
Y62331D01*
X116976Y53669D02*
X139024D01*
X116976D02*
Y62331D01*
X143976D02*
X166024D01*
Y53669D02*
Y62331D01*
X143976Y53669D02*
X166024D01*
X143976D02*
Y62331D01*
X170976D02*
X193024D01*
Y53669D02*
Y62331D01*
X170976Y53669D02*
X193024D01*
X170976D02*
Y62331D01*
X197976D02*
X220023D01*
Y53669D02*
Y62331D01*
X197976Y53669D02*
X220023D01*
X197976D02*
Y62331D01*
X224976D02*
X247024D01*
Y53669D02*
Y62331D01*
X224976Y53669D02*
X247024D01*
X224976D02*
Y62331D01*
X251976D02*
X274024D01*
Y53669D02*
Y62331D01*
X251976Y53669D02*
X274024D01*
X251976D02*
Y62331D01*
X278976D02*
X301024D01*
Y53669D02*
Y62331D01*
X278976Y53669D02*
X301024D01*
X278976D02*
Y62331D01*
X305976D02*
X328024D01*
Y53669D02*
Y62331D01*
X305976Y53669D02*
X328024D01*
X305976D02*
Y62331D01*
X332976D02*
X355024D01*
Y53669D02*
Y62331D01*
X332976Y53669D02*
X355024D01*
X332976D02*
Y62331D01*
X359976D02*
X382024D01*
Y53669D02*
Y62331D01*
X359976Y53669D02*
X382024D01*
X359976D02*
Y62331D01*
X386976D02*
X409024D01*
Y53669D02*
Y62331D01*
X386976Y53669D02*
X409024D01*
X386976D02*
Y62331D01*
X413976D02*
X436023D01*
Y53669D02*
Y62331D01*
X413976Y53669D02*
X436023D01*
X413976D02*
Y62331D01*
X494976D02*
X517023D01*
Y53669D02*
Y62331D01*
X494976Y53669D02*
X517023D01*
X494976D02*
Y62331D01*
X521976D02*
X544023D01*
Y53669D02*
Y62331D01*
X521976Y53669D02*
X544023D01*
X521976D02*
Y62331D01*
X548976D02*
X571023D01*
Y53669D02*
Y62331D01*
X548976Y53669D02*
X571023D01*
X548976D02*
Y62331D01*
X575976D02*
X598023D01*
Y53669D02*
Y62331D01*
X575976Y53669D02*
X598023D01*
X575976D02*
Y62331D01*
X629976D02*
X652023D01*
Y53669D02*
Y62331D01*
X629976Y53669D02*
X652023D01*
X629976D02*
Y62331D01*
X609913Y166457D02*
Y173543D01*
Y166457D02*
X624087D01*
Y173543D01*
X609913D02*
X624087D01*
X8583Y50906D02*
X31417D01*
Y30827D02*
Y50906D01*
X8583Y10748D02*
X31417D01*
Y30827D01*
X8583Y10748D02*
Y30827D01*
Y50906D01*
X35583D02*
X58417D01*
Y30827D02*
Y50906D01*
X35583Y10748D02*
X58417D01*
Y30827D01*
X35583Y10748D02*
Y30827D01*
Y50906D01*
X62583D02*
X85417D01*
Y30827D02*
Y50906D01*
X62583Y10748D02*
X85417D01*
Y30827D01*
X62583Y10748D02*
Y30827D01*
Y50906D01*
X89583D02*
X112417D01*
Y30827D02*
Y50906D01*
X89583Y10748D02*
X112417D01*
Y30827D01*
X89583Y10748D02*
Y30827D01*
Y50906D01*
X116583D02*
X139417D01*
Y30827D02*
Y50906D01*
X116583Y10748D02*
X139417D01*
Y30827D01*
X116583Y10748D02*
Y30827D01*
Y50906D01*
X143583D02*
X166417D01*
Y30827D02*
Y50906D01*
X143583Y10748D02*
X166417D01*
Y30827D01*
X143583Y10748D02*
Y30827D01*
Y50906D01*
X170583D02*
X193417D01*
Y30827D02*
Y50906D01*
X170583Y10748D02*
X193417D01*
Y30827D01*
X170583Y10748D02*
Y30827D01*
Y50906D01*
X197583D02*
X220417D01*
Y30827D02*
Y50906D01*
X197583Y10748D02*
X220417D01*
Y30827D01*
X197583Y10748D02*
Y30827D01*
Y50906D01*
X224583D02*
X247417D01*
Y30827D02*
Y50906D01*
X224583Y10748D02*
X247417D01*
Y30827D01*
X224583Y10748D02*
Y30827D01*
Y50906D01*
X251583D02*
X274417D01*
Y30827D02*
Y50906D01*
X251583Y10748D02*
X274417D01*
Y30827D01*
X251583Y10748D02*
Y30827D01*
Y50906D01*
X278583D02*
X301417D01*
Y30827D02*
Y50906D01*
X278583Y10748D02*
X301417D01*
Y30827D01*
X278583Y10748D02*
Y30827D01*
Y50906D01*
X305583D02*
X328417D01*
Y30827D02*
Y50906D01*
X305583Y10748D02*
X328417D01*
Y30827D01*
X305583Y10748D02*
Y30827D01*
Y50906D01*
X332583D02*
X355417D01*
Y30827D02*
Y50906D01*
X332583Y10748D02*
X355417D01*
Y30827D01*
X332583Y10748D02*
Y30827D01*
Y50906D01*
X359583D02*
X382417D01*
Y30827D02*
Y50906D01*
X359583Y10748D02*
X382417D01*
Y30827D01*
X359583Y10748D02*
Y30827D01*
Y50906D01*
X386583D02*
X409417D01*
Y30827D02*
Y50906D01*
X386583Y10748D02*
X409417D01*
Y30827D01*
X386583Y10748D02*
Y30827D01*
Y50906D01*
X413583D02*
X436417D01*
Y30827D02*
Y50906D01*
X413583Y10748D02*
X436417D01*
Y30827D01*
X413583Y10748D02*
Y30827D01*
Y50906D01*
X440583D02*
X463417D01*
Y30827D02*
Y50906D01*
X440583Y10748D02*
X463417D01*
Y30827D01*
X440583Y10748D02*
Y30827D01*
Y50906D01*
X467583D02*
X490417D01*
Y30827D02*
Y50906D01*
X467583Y10748D02*
X490417D01*
Y30827D01*
X467583Y10748D02*
Y30827D01*
Y50906D01*
X494583D02*
X517417D01*
Y30827D02*
Y50906D01*
X494583Y10748D02*
X517417D01*
Y30827D01*
X494583Y10748D02*
Y30827D01*
Y50906D01*
X521583D02*
X544417D01*
Y30827D02*
Y50906D01*
X521583Y10748D02*
X544417D01*
Y30827D01*
X521583Y10748D02*
Y30827D01*
Y50906D01*
X548583D02*
X571417D01*
Y30827D02*
Y50906D01*
X548583Y10748D02*
X571417D01*
Y30827D01*
X548583Y10748D02*
Y30827D01*
Y50906D01*
X575583D02*
X598417D01*
Y30827D02*
Y50906D01*
X575583Y10748D02*
X598417D01*
Y30827D01*
X575583Y10748D02*
Y30827D01*
Y50906D01*
X602583D02*
X625417D01*
Y30827D02*
Y50906D01*
X602583Y10748D02*
X625417D01*
Y30827D01*
X602583Y10748D02*
Y30827D01*
Y50906D01*
X629583D02*
X652417D01*
Y30827D02*
Y50906D01*
X629583Y10748D02*
X652417D01*
Y30827D01*
X629583Y10748D02*
Y30827D01*
Y50906D01*
X272284Y69669D02*
Y78331D01*
Y69669D02*
X294331D01*
Y78331D01*
X272284D02*
X294331D01*
X56976Y70669D02*
Y79331D01*
Y70669D02*
X79024D01*
Y79331D01*
X56976D02*
X79024D01*
X487976Y88669D02*
Y97331D01*
Y88669D02*
X510024D01*
Y97331D01*
X487976D02*
X510024D01*
X272284Y88669D02*
Y97331D01*
Y88669D02*
X294331D01*
Y97331D01*
X272284D02*
X294331D01*
X56976Y86669D02*
Y95331D01*
Y86669D02*
X79024D01*
Y95331D01*
X56976D02*
X79024D01*
X467976Y62331D02*
X490023D01*
Y53669D02*
Y62331D01*
X467976Y53669D02*
X490023D01*
X467976D02*
Y62331D01*
X440976D02*
X463023D01*
Y53669D02*
Y62331D01*
X440976Y53669D02*
X463023D01*
X440976D02*
Y62331D01*
X487976Y69669D02*
Y78331D01*
Y69669D02*
X510024D01*
Y78331D01*
X487976D02*
X510024D01*
X450551Y107244D02*
Y112756D01*
X448583Y107244D02*
X462756D01*
X448583D02*
Y112756D01*
X462756D01*
Y107244D02*
Y112756D01*
X466850Y106457D02*
Y113543D01*
Y106457D02*
X481024D01*
Y113543D01*
X466850D02*
X481024D01*
X219500Y142000D02*
Y178000D01*
X300500D01*
X270000Y142000D02*
X300500D01*
Y178000D01*
X219500Y142000D02*
X250000D01*
Y147000D01*
X224000D02*
X250000D01*
X224000D02*
Y173000D01*
X296000D01*
Y147000D02*
Y173000D01*
X270000Y147000D02*
X296000D01*
X270000Y142000D02*
Y147000D01*
X137500Y142000D02*
Y147000D01*
X176000D01*
Y173000D01*
X84000D02*
X176000D01*
X84000Y147000D02*
Y173000D01*
Y147000D02*
X122500D01*
Y142000D02*
Y147000D01*
X79500Y142000D02*
X122500D01*
X180500D02*
Y178000D01*
X137500Y142000D02*
X180500D01*
X79500Y178000D02*
X180500D01*
X79500Y142000D02*
Y178000D01*
D34*
X354848Y181348D02*
Y185347D01*
X356847D01*
X357514Y184680D01*
Y183347D01*
X356847Y182681D01*
X354848D01*
X358847Y184680D02*
X359513Y185347D01*
X360846D01*
X361512Y184680D01*
Y184014D01*
X360846Y183347D01*
X360180D01*
X360846D01*
X361512Y182681D01*
Y182015D01*
X360846Y181348D01*
X359513D01*
X358847Y182015D01*
X467148Y116848D02*
Y120847D01*
X469147D01*
X469814Y120180D01*
Y118847D01*
X469147Y118181D01*
X467148D01*
X468481D02*
X469814Y116848D01*
X471147Y117515D02*
X471813Y116848D01*
X473146D01*
X473812Y117515D01*
Y120180D01*
X473146Y120847D01*
X471813D01*
X471147Y120180D01*
Y119514D01*
X471813Y118847D01*
X473812D01*
X566248Y176848D02*
Y180847D01*
X568247D01*
X568914Y180180D01*
Y178847D01*
X568247Y178181D01*
X566248D01*
X567581D02*
X568914Y176848D01*
X572913Y180847D02*
X570247D01*
Y178847D01*
X571580Y179514D01*
X572246D01*
X572913Y178847D01*
Y177515D01*
X572246Y176848D01*
X570913D01*
X570247Y177515D01*
X475348Y180848D02*
Y184847D01*
X477347D01*
X478014Y184180D01*
Y182847D01*
X477347Y182181D01*
X475348D01*
X481346Y180848D02*
Y184847D01*
X479347Y182847D01*
X482013D01*
X448848Y120047D02*
Y116048D01*
X450847D01*
X451514Y116715D01*
Y119380D01*
X450847Y120047D01*
X448848D01*
X455513Y116048D02*
X452847D01*
X455513Y118714D01*
Y119380D01*
X454846Y120047D01*
X453513D01*
X452847Y119380D01*
X459511Y120047D02*
X456845D01*
Y118047D01*
X458178Y118714D01*
X458845D01*
X459511Y118047D01*
Y116715D01*
X458845Y116048D01*
X457512D01*
X456845Y116715D01*
X575000Y134999D02*
Y131667D01*
X575666Y131000D01*
X576999D01*
X577666Y131667D01*
Y134999D01*
X578999Y131000D02*
X580332D01*
X579665D01*
Y134999D01*
X578999Y134332D01*
X508748Y168347D02*
X511414Y164348D01*
Y168347D02*
X508748Y164348D01*
X512747D02*
X514080D01*
X513413D01*
Y168347D01*
X512747Y167680D01*
X99897Y125647D02*
Y122315D01*
X100563Y121648D01*
X101896D01*
X102563Y122315D01*
Y125647D01*
X103896Y124980D02*
X104562Y125647D01*
X105895D01*
X106561Y124980D01*
Y124314D01*
X105895Y123647D01*
X106561Y122981D01*
Y122315D01*
X105895Y121648D01*
X104562D01*
X103896Y122315D01*
Y122981D01*
X104562Y123647D01*
X103896Y124314D01*
Y124980D01*
X104562Y123647D02*
X105895D01*
X315897Y125647D02*
Y122315D01*
X316563Y121648D01*
X317896D01*
X318563Y122315D01*
Y125647D01*
X319896D02*
X322561D01*
Y124980D01*
X319896Y122315D01*
Y121648D01*
X525099Y125647D02*
Y122315D01*
X525766Y121648D01*
X527099D01*
X527765Y122315D01*
Y125647D01*
X531764D02*
X530431Y124980D01*
X529098Y123647D01*
Y122315D01*
X529764Y121648D01*
X531097D01*
X531764Y122315D01*
Y122981D01*
X531097Y123647D01*
X529098D01*
X17036Y8509D02*
X16369Y9176D01*
X15036D01*
X14370Y8509D01*
Y7843D01*
X15036Y7176D01*
X16369D01*
X17036Y6510D01*
Y5843D01*
X16369Y5177D01*
X15036D01*
X14370Y5843D01*
X21034Y5177D02*
X18368D01*
X21034Y7843D01*
Y8509D01*
X20368Y9176D01*
X19035D01*
X18368Y8509D01*
X24366Y5177D02*
Y9176D01*
X22367Y7176D01*
X25033D01*
X44036Y8509D02*
X43369Y9176D01*
X42036D01*
X41370Y8509D01*
Y7843D01*
X42036Y7176D01*
X43369D01*
X44036Y6510D01*
Y5843D01*
X43369Y5177D01*
X42036D01*
X41370Y5843D01*
X48034Y5177D02*
X45368D01*
X48034Y7843D01*
Y8509D01*
X47368Y9176D01*
X46035D01*
X45368Y8509D01*
X49367D02*
X50034Y9176D01*
X51367D01*
X52033Y8509D01*
Y7843D01*
X51367Y7176D01*
X50700D01*
X51367D01*
X52033Y6510D01*
Y5843D01*
X51367Y5177D01*
X50034D01*
X49367Y5843D01*
X71035Y8509D02*
X70369Y9176D01*
X69036D01*
X68370Y8509D01*
Y7843D01*
X69036Y7176D01*
X70369D01*
X71035Y6510D01*
Y5843D01*
X70369Y5177D01*
X69036D01*
X68370Y5843D01*
X75034Y5177D02*
X72368D01*
X75034Y7843D01*
Y8509D01*
X74368Y9176D01*
X73035D01*
X72368Y8509D01*
X79033Y5177D02*
X76367D01*
X79033Y7843D01*
Y8509D01*
X78367Y9176D01*
X77034D01*
X76367Y8509D01*
X98036D02*
X97369Y9176D01*
X96036D01*
X95370Y8509D01*
Y7843D01*
X96036Y7176D01*
X97369D01*
X98036Y6510D01*
Y5843D01*
X97369Y5177D01*
X96036D01*
X95370Y5843D01*
X102034Y5177D02*
X99368D01*
X102034Y7843D01*
Y8509D01*
X101368Y9176D01*
X100035D01*
X99368Y8509D01*
X103367Y5177D02*
X104700D01*
X104034D01*
Y9176D01*
X103367Y8509D01*
X125036D02*
X124369Y9176D01*
X123036D01*
X122370Y8509D01*
Y7843D01*
X123036Y7176D01*
X124369D01*
X125036Y6510D01*
Y5843D01*
X124369Y5177D01*
X123036D01*
X122370Y5843D01*
X129034Y5177D02*
X126368D01*
X129034Y7843D01*
Y8509D01*
X128368Y9176D01*
X127035D01*
X126368Y8509D01*
X130367D02*
X131034Y9176D01*
X132367D01*
X133033Y8509D01*
Y5843D01*
X132367Y5177D01*
X131034D01*
X130367Y5843D01*
Y8509D01*
X152035D02*
X151369Y9176D01*
X150036D01*
X149370Y8509D01*
Y7843D01*
X150036Y7176D01*
X151369D01*
X152035Y6510D01*
Y5843D01*
X151369Y5177D01*
X150036D01*
X149370Y5843D01*
X153368Y5177D02*
X154701D01*
X154035D01*
Y9176D01*
X153368Y8509D01*
X156701Y5843D02*
X157367Y5177D01*
X158700D01*
X159367Y5843D01*
Y8509D01*
X158700Y9176D01*
X157367D01*
X156701Y8509D01*
Y7843D01*
X157367Y7176D01*
X159367D01*
X179035Y8509D02*
X178369Y9176D01*
X177036D01*
X176370Y8509D01*
Y7843D01*
X177036Y7176D01*
X178369D01*
X179035Y6510D01*
Y5843D01*
X178369Y5177D01*
X177036D01*
X176370Y5843D01*
X180368Y5177D02*
X181701D01*
X181035D01*
Y9176D01*
X180368Y8509D01*
X183701D02*
X184367Y9176D01*
X185700D01*
X186366Y8509D01*
Y7843D01*
X185700Y7176D01*
X186366Y6510D01*
Y5843D01*
X185700Y5177D01*
X184367D01*
X183701Y5843D01*
Y6510D01*
X184367Y7176D01*
X183701Y7843D01*
Y8509D01*
X184367Y7176D02*
X185700D01*
X206035Y8509D02*
X205369Y9176D01*
X204036D01*
X203370Y8509D01*
Y7843D01*
X204036Y7176D01*
X205369D01*
X206035Y6510D01*
Y5843D01*
X205369Y5177D01*
X204036D01*
X203370Y5843D01*
X207368Y5177D02*
X208701D01*
X208035D01*
Y9176D01*
X207368Y8509D01*
X210701Y9176D02*
X213367D01*
Y8509D01*
X210701Y5843D01*
Y5177D01*
X233035Y8509D02*
X232369Y9176D01*
X231036D01*
X230370Y8509D01*
Y7843D01*
X231036Y7176D01*
X232369D01*
X233035Y6510D01*
Y5843D01*
X232369Y5177D01*
X231036D01*
X230370Y5843D01*
X234368Y5177D02*
X235701D01*
X235035D01*
Y9176D01*
X234368Y8509D01*
X240367Y9176D02*
X239034Y8509D01*
X237701Y7176D01*
Y5843D01*
X238367Y5177D01*
X239700D01*
X240367Y5843D01*
Y6510D01*
X239700Y7176D01*
X237701D01*
X260035Y8509D02*
X259369Y9176D01*
X258036D01*
X257370Y8509D01*
Y7843D01*
X258036Y7176D01*
X259369D01*
X260035Y6510D01*
Y5843D01*
X259369Y5177D01*
X258036D01*
X257370Y5843D01*
X261368Y5177D02*
X262701D01*
X262035D01*
Y9176D01*
X261368Y8509D01*
X267367Y9176D02*
X264701D01*
Y7176D01*
X266034Y7843D01*
X266700D01*
X267367Y7176D01*
Y5843D01*
X266700Y5177D01*
X265367D01*
X264701Y5843D01*
X287035Y8509D02*
X286369Y9176D01*
X285036D01*
X284370Y8509D01*
Y7843D01*
X285036Y7176D01*
X286369D01*
X287035Y6510D01*
Y5843D01*
X286369Y5177D01*
X285036D01*
X284370Y5843D01*
X288368Y5177D02*
X289701D01*
X289035D01*
Y9176D01*
X288368Y8509D01*
X293700Y5177D02*
Y9176D01*
X291701Y7176D01*
X294367D01*
X314036Y8509D02*
X313369Y9176D01*
X312036D01*
X311370Y8509D01*
Y7843D01*
X312036Y7176D01*
X313369D01*
X314036Y6510D01*
Y5843D01*
X313369Y5177D01*
X312036D01*
X311370Y5843D01*
X315368Y5177D02*
X316701D01*
X316035D01*
Y9176D01*
X315368Y8509D01*
X318701D02*
X319367Y9176D01*
X320700D01*
X321367Y8509D01*
Y7843D01*
X320700Y7176D01*
X320034D01*
X320700D01*
X321367Y6510D01*
Y5843D01*
X320700Y5177D01*
X319367D01*
X318701Y5843D01*
X341036Y8509D02*
X340369Y9176D01*
X339036D01*
X338370Y8509D01*
Y7843D01*
X339036Y7176D01*
X340369D01*
X341036Y6510D01*
Y5843D01*
X340369Y5177D01*
X339036D01*
X338370Y5843D01*
X342368Y5177D02*
X343701D01*
X343035D01*
Y9176D01*
X342368Y8509D01*
X348366Y5177D02*
X345701D01*
X348366Y7843D01*
Y8509D01*
X347700Y9176D01*
X346367D01*
X345701Y8509D01*
X368036D02*
X367369Y9176D01*
X366036D01*
X365370Y8509D01*
Y7843D01*
X366036Y7176D01*
X367369D01*
X368036Y6510D01*
Y5843D01*
X367369Y5177D01*
X366036D01*
X365370Y5843D01*
X369368Y5177D02*
X370701D01*
X370035D01*
Y9176D01*
X369368Y8509D01*
X372701Y5177D02*
X374034D01*
X373367D01*
Y9176D01*
X372701Y8509D01*
X395036D02*
X394369Y9176D01*
X393036D01*
X392370Y8509D01*
Y7843D01*
X393036Y7176D01*
X394369D01*
X395036Y6510D01*
Y5843D01*
X394369Y5177D01*
X393036D01*
X392370Y5843D01*
X396368Y5177D02*
X397701D01*
X397035D01*
Y9176D01*
X396368Y8509D01*
X399701D02*
X400367Y9176D01*
X401700D01*
X402366Y8509D01*
Y5843D01*
X401700Y5177D01*
X400367D01*
X399701Y5843D01*
Y8509D01*
X422036D02*
X421369Y9176D01*
X420036D01*
X419370Y8509D01*
Y7843D01*
X420036Y7176D01*
X421369D01*
X422036Y6510D01*
Y5843D01*
X421369Y5177D01*
X420036D01*
X419370Y5843D01*
X423368D02*
X424035Y5177D01*
X425368D01*
X426034Y5843D01*
Y8509D01*
X425368Y9176D01*
X424035D01*
X423368Y8509D01*
Y7843D01*
X424035Y7176D01*
X426034D01*
X449036Y8509D02*
X448369Y9176D01*
X447036D01*
X446370Y8509D01*
Y7843D01*
X447036Y7176D01*
X448369D01*
X449036Y6510D01*
Y5843D01*
X448369Y5177D01*
X447036D01*
X446370Y5843D01*
X450368Y8509D02*
X451035Y9176D01*
X452368D01*
X453034Y8509D01*
Y7843D01*
X452368Y7176D01*
X453034Y6510D01*
Y5843D01*
X452368Y5177D01*
X451035D01*
X450368Y5843D01*
Y6510D01*
X451035Y7176D01*
X450368Y7843D01*
Y8509D01*
X451035Y7176D02*
X452368D01*
X476035Y8509D02*
X475369Y9176D01*
X474036D01*
X473370Y8509D01*
Y7843D01*
X474036Y7176D01*
X475369D01*
X476035Y6510D01*
Y5843D01*
X475369Y5177D01*
X474036D01*
X473370Y5843D01*
X477368Y9176D02*
X480034D01*
Y8509D01*
X477368Y5843D01*
Y5177D01*
X503035Y8509D02*
X502369Y9176D01*
X501036D01*
X500370Y8509D01*
Y7843D01*
X501036Y7176D01*
X502369D01*
X503035Y6510D01*
Y5843D01*
X502369Y5177D01*
X501036D01*
X500370Y5843D01*
X507034Y9176D02*
X505701Y8509D01*
X504368Y7176D01*
Y5843D01*
X505035Y5177D01*
X506368D01*
X507034Y5843D01*
Y6510D01*
X506368Y7176D01*
X504368D01*
X530035Y8509D02*
X529369Y9176D01*
X528036D01*
X527370Y8509D01*
Y7843D01*
X528036Y7176D01*
X529369D01*
X530035Y6510D01*
Y5843D01*
X529369Y5177D01*
X528036D01*
X527370Y5843D01*
X534034Y9176D02*
X531368D01*
Y7176D01*
X532701Y7843D01*
X533368D01*
X534034Y7176D01*
Y5843D01*
X533368Y5177D01*
X532035D01*
X531368Y5843D01*
X557035Y8509D02*
X556369Y9176D01*
X555036D01*
X554370Y8509D01*
Y7843D01*
X555036Y7176D01*
X556369D01*
X557035Y6510D01*
Y5843D01*
X556369Y5177D01*
X555036D01*
X554370Y5843D01*
X560368Y5177D02*
Y9176D01*
X558368Y7176D01*
X561034D01*
X584035Y8509D02*
X583369Y9176D01*
X582036D01*
X581370Y8509D01*
Y7843D01*
X582036Y7176D01*
X583369D01*
X584035Y6510D01*
Y5843D01*
X583369Y5177D01*
X582036D01*
X581370Y5843D01*
X585368Y8509D02*
X586035Y9176D01*
X587368D01*
X588034Y8509D01*
Y7843D01*
X587368Y7176D01*
X586701D01*
X587368D01*
X588034Y6510D01*
Y5843D01*
X587368Y5177D01*
X586035D01*
X585368Y5843D01*
X611035Y8509D02*
X610369Y9176D01*
X609036D01*
X608370Y8509D01*
Y7843D01*
X609036Y7176D01*
X610369D01*
X611035Y6510D01*
Y5843D01*
X610369Y5177D01*
X609036D01*
X608370Y5843D01*
X615034Y5177D02*
X612368D01*
X615034Y7843D01*
Y8509D01*
X614368Y9176D01*
X613035D01*
X612368Y8509D01*
X638035D02*
X637369Y9176D01*
X636036D01*
X635370Y8509D01*
Y7843D01*
X636036Y7176D01*
X637369D01*
X638035Y6510D01*
Y5843D01*
X637369Y5177D01*
X636036D01*
X635370Y5843D01*
X639368Y5177D02*
X640701D01*
X640035D01*
Y9176D01*
X639368Y8509D01*
X5000Y63839D02*
Y67837D01*
X6999D01*
X7666Y67171D01*
Y65838D01*
X6999Y65171D01*
X5000D01*
X6333D02*
X7666Y63839D01*
X8999Y67171D02*
X9665Y67837D01*
X10998D01*
X11665Y67171D01*
Y66504D01*
X10998Y65838D01*
X10332D01*
X10998D01*
X11665Y65171D01*
Y64505D01*
X10998Y63839D01*
X9665D01*
X8999Y64505D01*
X12997Y67171D02*
X13664Y67837D01*
X14997D01*
X15663Y67171D01*
Y66504D01*
X14997Y65838D01*
X14330D01*
X14997D01*
X15663Y65171D01*
Y64505D01*
X14997Y63839D01*
X13664D01*
X12997Y64505D01*
X32000Y63839D02*
Y67837D01*
X33999D01*
X34666Y67171D01*
Y65838D01*
X33999Y65171D01*
X32000D01*
X33333D02*
X34666Y63839D01*
X35999Y67171D02*
X36665Y67837D01*
X37998D01*
X38664Y67171D01*
Y66504D01*
X37998Y65838D01*
X37332D01*
X37998D01*
X38664Y65171D01*
Y64505D01*
X37998Y63839D01*
X36665D01*
X35999Y64505D01*
X42663Y63839D02*
X39997D01*
X42663Y66504D01*
Y67171D01*
X41997Y67837D01*
X40664D01*
X39997Y67171D01*
X61000Y63839D02*
Y67837D01*
X62999D01*
X63666Y67171D01*
Y65838D01*
X62999Y65171D01*
X61000D01*
X62333D02*
X63666Y63839D01*
X64999Y67171D02*
X65665Y67837D01*
X66998D01*
X67664Y67171D01*
Y66504D01*
X66998Y65838D01*
X66332D01*
X66998D01*
X67664Y65171D01*
Y64505D01*
X66998Y63839D01*
X65665D01*
X64999Y64505D01*
X68997Y63839D02*
X70330D01*
X69664D01*
Y67837D01*
X68997Y67171D01*
X91000Y63839D02*
Y67837D01*
X92999D01*
X93666Y67171D01*
Y65838D01*
X92999Y65171D01*
X91000D01*
X92333D02*
X93666Y63839D01*
X94999Y67171D02*
X95665Y67837D01*
X96998D01*
X97664Y67171D01*
Y66504D01*
X96998Y65838D01*
X96332D01*
X96998D01*
X97664Y65171D01*
Y64505D01*
X96998Y63839D01*
X95665D01*
X94999Y64505D01*
X98997Y67171D02*
X99664Y67837D01*
X100997D01*
X101663Y67171D01*
Y64505D01*
X100997Y63839D01*
X99664D01*
X98997Y64505D01*
Y67171D01*
X117248Y63839D02*
Y67837D01*
X119247D01*
X119914Y67171D01*
Y65838D01*
X119247Y65171D01*
X117248D01*
X118581D02*
X119914Y63839D01*
X123913D02*
X121247D01*
X123913Y66504D01*
Y67171D01*
X123246Y67837D01*
X121913D01*
X121247Y67171D01*
X125245Y64505D02*
X125912Y63839D01*
X127245D01*
X127911Y64505D01*
Y67171D01*
X127245Y67837D01*
X125912D01*
X125245Y67171D01*
Y66504D01*
X125912Y65838D01*
X127911D01*
X144248Y63839D02*
Y67837D01*
X146247D01*
X146914Y67171D01*
Y65838D01*
X146247Y65171D01*
X144248D01*
X145581D02*
X146914Y63839D01*
X150912D02*
X148247D01*
X150912Y66504D01*
Y67171D01*
X150246Y67837D01*
X148913D01*
X148247Y67171D01*
X152245D02*
X152912Y67837D01*
X154245D01*
X154911Y67171D01*
Y66504D01*
X154245Y65838D01*
X154911Y65171D01*
Y64505D01*
X154245Y63839D01*
X152912D01*
X152245Y64505D01*
Y65171D01*
X152912Y65838D01*
X152245Y66504D01*
Y67171D01*
X152912Y65838D02*
X154245D01*
X171248Y63839D02*
Y67837D01*
X173247D01*
X173914Y67171D01*
Y65838D01*
X173247Y65171D01*
X171248D01*
X172581D02*
X173914Y63839D01*
X177912D02*
X175247D01*
X177912Y66504D01*
Y67171D01*
X177246Y67837D01*
X175913D01*
X175247Y67171D01*
X179245Y67837D02*
X181911D01*
Y67171D01*
X179245Y64505D01*
Y63839D01*
X198248D02*
Y67837D01*
X200247D01*
X200914Y67171D01*
Y65838D01*
X200247Y65171D01*
X198248D01*
X199581D02*
X200914Y63839D01*
X204912D02*
X202247D01*
X204912Y66504D01*
Y67171D01*
X204246Y67837D01*
X202913D01*
X202247Y67171D01*
X208911Y67837D02*
X207578Y67171D01*
X206245Y65838D01*
Y64505D01*
X206912Y63839D01*
X208245D01*
X208911Y64505D01*
Y65171D01*
X208245Y65838D01*
X206245D01*
X225248Y63839D02*
Y67837D01*
X227247D01*
X227914Y67171D01*
Y65838D01*
X227247Y65171D01*
X225248D01*
X226581D02*
X227914Y63839D01*
X231912D02*
X229247D01*
X231912Y66504D01*
Y67171D01*
X231246Y67837D01*
X229913D01*
X229247Y67171D01*
X235911Y67837D02*
X233245D01*
Y65838D01*
X234578Y66504D01*
X235245D01*
X235911Y65838D01*
Y64505D01*
X235245Y63839D01*
X233912D01*
X233245Y64505D01*
X252248Y63839D02*
Y67837D01*
X254247D01*
X254914Y67171D01*
Y65838D01*
X254247Y65171D01*
X252248D01*
X253581D02*
X254914Y63839D01*
X258912D02*
X256247D01*
X258912Y66504D01*
Y67171D01*
X258246Y67837D01*
X256913D01*
X256247Y67171D01*
X262245Y63839D02*
Y67837D01*
X260245Y65838D01*
X262911D01*
X279248Y63839D02*
Y67837D01*
X281247D01*
X281914Y67171D01*
Y65838D01*
X281247Y65171D01*
X279248D01*
X280581D02*
X281914Y63839D01*
X285912D02*
X283247D01*
X285912Y66504D01*
Y67171D01*
X285246Y67837D01*
X283913D01*
X283247Y67171D01*
X287245D02*
X287912Y67837D01*
X289245D01*
X289911Y67171D01*
Y66504D01*
X289245Y65838D01*
X288578D01*
X289245D01*
X289911Y65171D01*
Y64505D01*
X289245Y63839D01*
X287912D01*
X287245Y64505D01*
X306248Y63839D02*
Y67837D01*
X308247D01*
X308914Y67171D01*
Y65838D01*
X308247Y65171D01*
X306248D01*
X307581D02*
X308914Y63839D01*
X312913D02*
X310247D01*
X312913Y66504D01*
Y67171D01*
X312246Y67837D01*
X310913D01*
X310247Y67171D01*
X316911Y63839D02*
X314245D01*
X316911Y66504D01*
Y67171D01*
X316245Y67837D01*
X314912D01*
X314245Y67171D01*
X333248Y63839D02*
Y67837D01*
X335247D01*
X335914Y67171D01*
Y65838D01*
X335247Y65171D01*
X333248D01*
X334581D02*
X335914Y63839D01*
X339913D02*
X337247D01*
X339913Y66504D01*
Y67171D01*
X339246Y67837D01*
X337913D01*
X337247Y67171D01*
X341245Y63839D02*
X342578D01*
X341912D01*
Y67837D01*
X341245Y67171D01*
X360248Y63839D02*
Y67837D01*
X362247D01*
X362914Y67171D01*
Y65838D01*
X362247Y65171D01*
X360248D01*
X361581D02*
X362914Y63839D01*
X366913D02*
X364247D01*
X366913Y66504D01*
Y67171D01*
X366246Y67837D01*
X364913D01*
X364247Y67171D01*
X368245D02*
X368912Y67837D01*
X370245D01*
X370911Y67171D01*
Y64505D01*
X370245Y63839D01*
X368912D01*
X368245Y64505D01*
Y67171D01*
X387248Y63839D02*
Y67837D01*
X389247D01*
X389914Y67171D01*
Y65838D01*
X389247Y65171D01*
X387248D01*
X388581D02*
X389914Y63839D01*
X391247D02*
X392580D01*
X391913D01*
Y67837D01*
X391247Y67171D01*
X394579Y64505D02*
X395245Y63839D01*
X396578D01*
X397245Y64505D01*
Y67171D01*
X396578Y67837D01*
X395245D01*
X394579Y67171D01*
Y66504D01*
X395245Y65838D01*
X397245D01*
X414248Y63839D02*
Y67837D01*
X416247D01*
X416914Y67171D01*
Y65838D01*
X416247Y65171D01*
X414248D01*
X415581D02*
X416914Y63839D01*
X418247D02*
X419580D01*
X418913D01*
Y67837D01*
X418247Y67171D01*
X421579D02*
X422245Y67837D01*
X423578D01*
X424245Y67171D01*
Y66504D01*
X423578Y65838D01*
X424245Y65171D01*
Y64505D01*
X423578Y63839D01*
X422245D01*
X421579Y64505D01*
Y65171D01*
X422245Y65838D01*
X421579Y66504D01*
Y67171D01*
X422245Y65838D02*
X423578D01*
X439000Y63839D02*
Y67837D01*
X440999D01*
X441666Y67171D01*
Y65838D01*
X440999Y65171D01*
X439000D01*
X440333D02*
X441666Y63839D01*
X442999D02*
X444332D01*
X443665D01*
Y67837D01*
X442999Y67171D01*
X446331Y67837D02*
X448997D01*
Y67171D01*
X446331Y64505D01*
Y63839D01*
X465000D02*
Y67837D01*
X466999D01*
X467666Y67171D01*
Y65838D01*
X466999Y65171D01*
X465000D01*
X466333D02*
X467666Y63839D01*
X468999D02*
X470332D01*
X469665D01*
Y67837D01*
X468999Y67171D01*
X474997Y67837D02*
X473664Y67171D01*
X472331Y65838D01*
Y64505D01*
X472997Y63839D01*
X474330D01*
X474997Y64505D01*
Y65171D01*
X474330Y65838D01*
X472331D01*
X495255Y63839D02*
Y67837D01*
X497254D01*
X497921Y67171D01*
Y65838D01*
X497254Y65171D01*
X495255D01*
X496588D02*
X497921Y63839D01*
X499254D02*
X500587D01*
X499920D01*
Y67837D01*
X499254Y67171D01*
X505252Y67837D02*
X502586D01*
Y65838D01*
X503919Y66504D01*
X504585D01*
X505252Y65838D01*
Y64505D01*
X504585Y63839D01*
X503252D01*
X502586Y64505D01*
X522255Y63839D02*
Y67837D01*
X524254D01*
X524921Y67171D01*
Y65838D01*
X524254Y65171D01*
X522255D01*
X523588D02*
X524921Y63839D01*
X526254D02*
X527587D01*
X526920D01*
Y67837D01*
X526254Y67171D01*
X531585Y63839D02*
Y67837D01*
X529586Y65838D01*
X532252D01*
X549255Y63839D02*
Y67837D01*
X551254D01*
X551921Y67171D01*
Y65838D01*
X551254Y65171D01*
X549255D01*
X550588D02*
X551921Y63839D01*
X553254D02*
X554587D01*
X553920D01*
Y67837D01*
X553254Y67171D01*
X556586D02*
X557252Y67837D01*
X558585D01*
X559252Y67171D01*
Y66504D01*
X558585Y65838D01*
X557919D01*
X558585D01*
X559252Y65171D01*
Y64505D01*
X558585Y63839D01*
X557252D01*
X556586Y64505D01*
X576241Y63839D02*
Y67837D01*
X578240D01*
X578906Y67171D01*
Y65838D01*
X578240Y65171D01*
X576241D01*
X577574D02*
X578906Y63839D01*
X580239D02*
X581572D01*
X580906D01*
Y67837D01*
X580239Y67171D01*
X586237Y63839D02*
X583572D01*
X586237Y66504D01*
Y67171D01*
X585571Y67837D01*
X584238D01*
X583572Y67171D01*
X604000Y63839D02*
Y67837D01*
X605999D01*
X606666Y67171D01*
Y65838D01*
X605999Y65171D01*
X604000D01*
X605333D02*
X606666Y63839D01*
X607999D02*
X609332D01*
X608665D01*
Y67837D01*
X607999Y67171D01*
X611331Y63839D02*
X612664D01*
X611997D01*
Y67837D01*
X611331Y67171D01*
X630255Y63839D02*
Y67837D01*
X632254D01*
X632921Y67171D01*
Y65838D01*
X632254Y65171D01*
X630255D01*
X631588D02*
X632921Y63839D01*
X634254D02*
X635586D01*
X634920D01*
Y67837D01*
X634254Y67171D01*
X637586D02*
X638252Y67837D01*
X639585D01*
X640252Y67171D01*
Y64505D01*
X639585Y63839D01*
X638252D01*
X637586Y64505D01*
Y67171D01*
X59000Y97000D02*
Y100999D01*
X60999D01*
X61666Y100332D01*
Y98999D01*
X60999Y98333D01*
X59000D01*
X60333D02*
X61666Y97000D01*
X62999Y100332D02*
X63665Y100999D01*
X64998D01*
X65664Y100332D01*
Y99666D01*
X64998Y98999D01*
X65664Y98333D01*
Y97666D01*
X64998Y97000D01*
X63665D01*
X62999Y97666D01*
Y98333D01*
X63665Y98999D01*
X62999Y99666D01*
Y100332D01*
X63665Y98999D02*
X64998D01*
X263000Y98000D02*
Y101999D01*
X264999D01*
X265666Y101332D01*
Y99999D01*
X264999Y99333D01*
X263000D01*
X264333D02*
X265666Y98000D01*
X266999Y101999D02*
X269665D01*
Y101332D01*
X266999Y98666D01*
Y98000D01*
X478000Y97000D02*
Y100999D01*
X479999D01*
X480666Y100332D01*
Y98999D01*
X479999Y98333D01*
X478000D01*
X479333D02*
X480666Y97000D01*
X484664Y100999D02*
X483332Y100332D01*
X481999Y98999D01*
Y97666D01*
X482665Y97000D01*
X483998D01*
X484664Y97666D01*
Y98333D01*
X483998Y98999D01*
X481999D01*
X68000Y81000D02*
Y84999D01*
X69999D01*
X70666Y84332D01*
Y82999D01*
X69999Y82333D01*
X68000D01*
X69333D02*
X70666Y81000D01*
X73998D02*
Y84999D01*
X71999Y82999D01*
X74664D01*
X263000Y77000D02*
Y80999D01*
X264999D01*
X265666Y80332D01*
Y78999D01*
X264999Y78333D01*
X263000D01*
X264333D02*
X265666Y77000D01*
X266999Y80332D02*
X267665Y80999D01*
X268998D01*
X269665Y80332D01*
Y79666D01*
X268998Y78999D01*
X268332D01*
X268998D01*
X269665Y78333D01*
Y77666D01*
X268998Y77000D01*
X267665D01*
X266999Y77666D01*
X480000Y72000D02*
Y75999D01*
X481999D01*
X482666Y75332D01*
Y73999D01*
X481999Y73333D01*
X480000D01*
X481333D02*
X482666Y72000D01*
X486664D02*
X483999D01*
X486664Y74666D01*
Y75332D01*
X485998Y75999D01*
X484665D01*
X483999Y75332D01*
X628000Y112000D02*
X624001D01*
Y113999D01*
X624668Y114666D01*
X626001D01*
X626667Y113999D01*
Y112000D01*
X628000Y118665D02*
Y115999D01*
X625334Y118665D01*
X624668D01*
X624001Y117998D01*
Y116665D01*
X624668Y115999D01*
X612914Y180180D02*
X612247Y180847D01*
X610915D01*
X610248Y180180D01*
Y177515D01*
X610915Y176848D01*
X612247D01*
X612914Y177515D01*
X616913Y180847D02*
X615580Y180180D01*
X614247Y178847D01*
Y177515D01*
X614913Y176848D01*
X616246D01*
X616913Y177515D01*
Y178181D01*
X616246Y178847D01*
X614247D01*
X219848Y181348D02*
Y185347D01*
X221847D01*
X222514Y184680D01*
Y183347D01*
X221847Y182681D01*
X219848D01*
X226513Y185347D02*
X223847D01*
Y183347D01*
X225180Y184014D01*
X225846D01*
X226513Y183347D01*
Y182015D01*
X225846Y181348D01*
X224513D01*
X223847Y182015D01*
X79848Y181348D02*
Y185347D01*
X81847D01*
X82514Y184680D01*
Y183347D01*
X81847Y182681D01*
X79848D01*
X83847Y181348D02*
X85180D01*
X84513D01*
Y185347D01*
X83847Y184680D01*
M02*
